<svg width="4096" height="4096" viewBox="0 0 4096 4096" xmlns="http://www.w3.org/2000/svg">
<g stroke="rgb(60, 56, 54)" stroke-width="5" stroke-linecap="round" stroke-linejoin="round" fill="transparent">
<path d="M2105,2126 L2198,2157 L2140,2078 L2048,2048 Z M1990,2126 L2048,2048 L1955,2078 L1897,2157 Z M2140,1920 L2198,1841 L2105,1871 L2048,1950 Z M2140,1920 L2233,1950 L2140,1980 L2048,1950 Z M1955,1920 L2048,1950 L1955,1980 L1862,1950 Z M1955,1920 L2048,1950 L1990,1871 L1897,1841 Z M2290,2029 L2290,2126 L2233,2048 L2233,1950 Z M2290,2029 L2290,2126 L2348,2048 L2348,1950 Z M2290,1871 L2348,1792 L2440,1762 L2383,1841 Z M2290,1871 L2290,1774 L2348,1695 L2348,1792 Z M2290,2126 L2383,2157 L2440,2235 L2348,2205 Z M2290,2126 L2290,2224 L2348,2303 L2348,2205 Z M2290,2382 L2348,2303 L2255,2333 L2198,2412 Z M2290,2382 L2383,2412 L2290,2442 L2198,2412 Z M2533,2303 L2626,2333 L2683,2412 L2590,2382 Z M2498,2412 L2590,2442 L2683,2412 L2590,2382 Z M2383,2412 L2383,2509 L2440,2588 L2440,2491 Z M2440,2235 L2498,2157 L2590,2126 L2533,2205 Z M2533,2205 L2533,2303 L2590,2224 L2590,2126 Z M2533,1950 L2533,2048 L2590,2126 L2590,2029 Z M2348,1950 L2440,1980 L2533,1950 L2440,1920 Z M2498,1841 L2590,1871 L2533,1792 L2440,1762 Z M2590,1871 L2590,1774 L2533,1695 L2533,1792 Z M2683,1841 L2776,1871 L2833,1950 L2741,1920 Z M2683,1841 L2683,1743 L2741,1665 L2741,1762 Z M2648,1950 L2741,1980 L2833,1950 L2741,1920 Z M2533,1695 L2590,1616 L2683,1586 L2626,1665 Z M2383,1586 L2383,1488 L2440,1409 L2440,1507 Z M2498,1586 L2590,1616 L2683,1586 L2590,1555 Z M2498,1586 L2498,1488 L2440,1409 L2440,1507 Z M2590,1458 L2683,1488 L2626,1409 L2533,1379 Z M2440,1409 L2440,1312 L2383,1233 L2383,1330 Z M2533,1379 L2533,1282 L2590,1203 L2590,1300 Z M2348,1379 L2440,1409 L2383,1330 L2290,1300 Z M2383,1233 L2440,1154 L2533,1124 L2476,1203 Z M2348,1124 L2440,1154 L2533,1124 L2440,1094 Z M2348,1124 L2348,1026 L2290,947 L2290,1045 Z M2198,1173 L2290,1203 L2233,1124 L2140,1094 Z M2140,1409 L2198,1330 L2290,1300 L2233,1379 Z M2198,1586 L2290,1616 L2383,1586 L2290,1555 Z M2198,1586 L2198,1488 L2140,1409 L2140,1507 Z M2255,1665 L2348,1695 L2290,1616 L2198,1586 Z M2105,1555 L2198,1586 L2140,1507 L2048,1477 Z M2048,1634 L2140,1665 L2048,1695 L1955,1665 Z M1990,1555 L2048,1477 L1955,1507 L1897,1586 Z M1897,1586 L1805,1555 L1712,1586 L1805,1616 Z M1897,1586 L1897,1488 L1955,1409 L1955,1507 Z M1840,1665 L1897,1586 L1805,1616 L1747,1695 Z M1955,1409 L1862,1379 L1805,1300 L1897,1330 Z M1747,1379 L1805,1300 L1712,1330 L1655,1409 Z M1897,1173 L1955,1094 L1862,1124 L1805,1203 Z M1712,1233 L1619,1203 L1562,1124 L1655,1154 Z M1747,1124 L1655,1094 L1562,1124 L1655,1154 Z M1747,1124 L1747,1026 L1805,947 L1805,1045 Z M1990,1203 L1897,1173 L1805,1203 L1897,1233 Z M2048,1379 L2048,1282 L1990,1203 L1990,1300 Z M2048,1379 L2048,1282 L2105,1203 L2105,1300 Z M2105,1203 L2198,1233 L2290,1203 L2198,1173 Z M2140,1094 L2140,996 L2198,917 L2198,1015 Z M1955,1094 L1955,996 L1897,917 L1897,1015 Z M2048,1026 L2105,947 L2198,917 L2140,996 Z M2048,1026 L1955,996 L1897,917 L1990,947 Z M1805,947 L1712,917 L1655,838 L1747,868 Z M1840,838 L1747,808 L1655,838 L1747,868 Z M1840,838 L1840,741 L1897,662 L1897,759 Z M1955,838 L1955,741 L1897,662 L1897,759 Z M2048,868 L1955,838 L2048,808 L2140,838 Z M1897,662 L1955,583 L2048,553 L1990,632 Z M1897,662 L1897,564 L1955,485 L1955,583 Z M1805,632 L1805,534 L1747,455 L1747,553 Z M1955,485 L1862,455 L1805,376 L1897,407 Z M1747,455 L1655,425 L1562,455 L1655,485 Z M1712,346 L1712,249 L1655,170 L1655,267 Z M1897,407 L1805,376 L1897,346 L1990,376 Z M1805,279 L1862,200 L1955,170 L1897,249 Z M1805,279 L1712,249 L1655,170 L1747,200 Z M1505,376 L1412,346 L1319,376 L1412,407 Z M1505,376 L1505,279 L1562,200 L1562,298 Z M1319,376 L1319,279 L1262,200 L1262,298 Z M1262,455 L1169,425 L1076,455 L1169,485 Z M1262,455 L1169,425 L1112,346 L1204,376 Z M1319,632 L1319,534 L1262,455 L1262,553 Z M1262,711 L1319,632 L1226,662 L1169,741 Z M1505,632 L1505,534 L1562,455 L1562,553 Z M1412,564 L1319,534 L1262,455 L1354,485 Z M1469,838 L1469,741 L1412,662 L1412,759 Z M1354,838 L1262,808 L1169,838 L1262,868 Z M1354,838 L1354,741 L1412,662 L1412,759 Z M1112,917 L1019,887 L926,917 L1019,947 Z M1076,808 L1076,711 L1019,632 L1019,729 Z M1169,741 L1076,711 L1019,632 L1112,662 Z M1019,632 L1019,534 L962,455 L962,553 Z M1019,632 L1019,534 L1076,455 L1076,553 Z M926,662 L833,632 L776,553 L869,583 Z M869,838 L776,808 L683,838 L776,868 Z M869,838 L869,741 L926,662 L926,759 Z M719,632 L776,553 L683,583 L626,662 Z M962,455 L869,425 L776,455 L869,485 Z M683,838 L683,741 L626,662 L626,759 Z M569,838 L569,741 L626,662 L626,759 Z M683,1094 L683,996 L626,917 L626,1015 Z M626,1173 L683,1094 L591,1124 L533,1203 Z M869,1094 L869,996 L926,917 L926,1015 Z M719,1203 L626,1173 L533,1203 L626,1233 Z M776,1026 L683,996 L626,917 L719,947 Z M869,996 L926,917 L833,947 L776,1026 Z M776,1379 L719,1458 L626,1488 L683,1409 Z M776,1379 L776,1282 L719,1203 L719,1300 Z M776,1379 L776,1282 L833,1203 L833,1300 Z M776,1477 L776,1379 L719,1458 L719,1555 Z M926,1586 L926,1488 L869,1409 L869,1507 Z M869,1665 L776,1634 L683,1665 L776,1695 Z M869,1665 L776,1634 L719,1555 L811,1586 Z M926,1841 L869,1920 L776,1950 L833,1871 Z M926,1841 L926,1743 L869,1665 L869,1762 Z M1076,1950 L1076,2048 L1019,2126 L1019,2029 Z M962,1950 L869,1920 L776,1950 L869,1980 Z M1019,1774 L926,1743 L869,1665 L962,1695 Z M1169,1665 L1112,1743 L1019,1774 L1076,1695 Z M1112,1586 L1019,1555 L926,1586 L1019,1616 Z M1112,1586 L1112,1488 L1169,1409 L1169,1507 Z M1169,1409 L1076,1379 L1019,1300 L1112,1330 Z M962,1379 L1019,1300 L926,1330 L869,1409 Z M1019,1203 L926,1173 L833,1203 L926,1233 Z M1019,1203 L926,1173 L869,1094 L962,1124 Z M1112,1173 L1169,1094 L1076,1124 L1019,1203 Z M1204,1203 L1112,1173 L1019,1203 L1112,1233 Z M1262,1124 L1262,1026 L1319,947 L1319,1045 Z M1262,1379 L1262,1282 L1204,1203 L1204,1300 Z M1262,1379 L1262,1282 L1319,1203 L1319,1300 Z M1319,1555 L1319,1458 L1262,1379 L1262,1477 Z M1262,1634 L1319,1555 L1226,1586 L1169,1665 Z M1354,1665 L1262,1634 L1169,1665 L1262,1695 Z M1412,1488 L1319,1458 L1262,1379 L1354,1409 Z M1505,1458 L1562,1379 L1469,1409 L1412,1488 Z M1562,1379 L1562,1282 L1505,1203 L1505,1300 Z M1505,1203 L1412,1173 L1319,1203 L1412,1233 Z M1354,1094 L1412,1015 L1319,1045 L1262,1124 Z M1562,1124 L1469,1094 L1412,1015 L1505,1045 Z M1562,1124 L1562,1026 L1505,947 L1505,1045 Z M1597,917 L1655,838 L1562,868 L1505,947 Z M1655,838 L1562,808 L1469,838 L1562,868 Z M1655,741 L1562,711 L1505,632 L1597,662 Z M1747,711 L1805,632 L1712,662 L1655,741 Z M1655,1409 L1655,1312 L1712,1233 L1712,1330 Z M1712,1586 L1712,1488 L1655,1409 L1655,1507 Z M1597,1586 L1505,1555 L1412,1586 L1505,1616 Z M1597,1586 L1597,1488 L1655,1409 L1655,1507 Z M1562,1695 L1469,1665 L1412,1586 L1505,1616 Z M1597,1841 L1655,1762 L1562,1792 L1505,1871 Z M1805,1871 L1712,1841 L1655,1762 L1747,1792 Z M1805,1871 L1805,1774 L1747,1695 L1747,1792 Z M1897,1841 L1897,1743 L1955,1665 L1955,1762 Z M1747,1950 L1655,1920 L1562,1950 L1655,1980 Z M1805,2029 L1805,2126 L1747,2048 L1747,1950 Z M1805,2029 L1805,2126 L1862,2048 L1862,1950 Z M1805,2126 L1747,2205 L1655,2235 L1712,2157 Z M1805,2126 L1805,2224 L1747,2303 L1747,2205 Z M1897,2412 L1990,2442 L2048,2521 L1955,2491 Z M1897,2412 L1897,2509 L1955,2588 L1955,2491 Z M1805,2382 L1897,2412 L1805,2442 L1712,2412 Z M1805,2382 L1897,2412 L1840,2333 L1747,2303 Z M1955,2588 L1897,2667 L1805,2697 L1862,2618 Z M2048,2618 L2048,2716 L2105,2795 L2105,2697 Z M2048,2618 L2048,2716 L1990,2795 L1990,2697 Z M2140,2588 L2233,2618 L2290,2697 L2198,2667 Z M1897,2765 L1990,2795 L1897,2825 L1805,2795 Z M1805,2795 L1897,2825 L1955,2904 L1862,2874 Z M1747,2874 L1747,2971 L1805,3050 L1805,2953 Z M1712,2765 L1655,2844 L1562,2874 L1619,2795 Z M1655,2588 L1747,2618 L1805,2697 L1712,2667 Z M1655,2588 L1655,2686 L1712,2765 L1712,2667 Z M1562,2618 L1469,2588 L1412,2509 L1505,2540 Z M1562,2618 L1562,2716 L1505,2795 L1505,2697 Z M1655,2491 L1655,2588 L1597,2509 L1597,2412 Z M1505,2795 L1412,2765 L1319,2795 L1412,2825 Z M1562,2874 L1505,2953 L1412,2983 L1469,2904 Z M1562,2874 L1562,2971 L1505,3050 L1505,2953 Z M1319,2697 L1319,2795 L1262,2716 L1262,2618 Z M1412,2509 L1354,2588 L1262,2618 L1319,2540 Z M1319,2442 L1226,2412 L1169,2333 L1262,2363 Z M1319,2442 L1319,2540 L1262,2618 L1262,2521 Z M1354,2333 L1262,2303 L1169,2333 L1262,2363 Z M1597,2412 L1505,2382 L1412,2412 L1505,2442 Z M1712,2412 L1712,2509 L1655,2588 L1655,2491 Z M1562,2303 L1505,2382 L1412,2412 L1469,2333 Z M1655,2235 L1562,2205 L1505,2126 L1597,2157 Z M1562,2205 L1562,2303 L1505,2224 L1505,2126 Z M1412,2157 L1319,2126 L1262,2048 L1354,2078 Z M1412,2157 L1412,2254 L1354,2333 L1354,2235 Z M1505,2029 L1505,2126 L1447,2048 L1447,1950 Z M1447,1950 L1354,1920 L1262,1950 L1354,1980 Z M1562,1950 L1562,2048 L1505,2126 L1505,2029 Z M1505,1871 L1505,1774 L1562,1695 L1562,1792 Z M1412,1841 L1354,1920 L1262,1950 L1319,1871 Z M1412,1841 L1412,1743 L1354,1665 L1354,1762 Z M1262,1950 L1169,1920 L1076,1950 L1169,1980 Z M1262,1950 L1169,1920 L1112,1841 L1204,1871 Z M1262,2048 L1204,2126 L1112,2157 L1169,2078 Z M1169,2235 L1169,2333 L1112,2254 L1112,2157 Z M1169,2333 L1076,2303 L1019,2224 L1112,2254 Z M1112,2412 L1019,2382 L926,2412 L1019,2442 Z M1019,2224 L962,2303 L869,2333 L926,2254 Z M926,2412 L926,2509 L869,2588 L869,2491 Z M869,2333 L811,2412 L719,2442 L776,2363 Z M869,2333 L776,2303 L683,2333 L776,2363 Z M926,2157 L833,2126 L776,2048 L869,2078 Z M926,2157 L926,2254 L869,2333 L869,2235 Z M683,2235 L683,2333 L626,2254 L626,2157 Z M776,2048 L719,2126 L626,2157 L683,2078 Z M776,1950 L683,1920 L591,1950 L683,1980 Z M776,1950 L683,1920 L626,1841 L719,1871 Z M591,1950 L591,2048 L533,2126 L533,2029 Z M533,1871 L440,1841 L383,1762 L476,1792 Z M533,1871 L533,1774 L476,1695 L476,1792 Z M683,1762 L683,1665 L626,1743 L626,1841 Z M626,1586 L569,1665 L476,1695 L533,1616 Z M626,1586 L533,1555 L440,1586 L533,1616 Z M626,1488 L533,1458 L476,1379 L569,1409 Z M533,1300 L533,1203 L476,1282 L476,1379 Z M383,1312 L290,1282 L233,1203 L326,1233 Z M533,1203 L476,1282 L383,1312 L440,1233 Z M476,1124 L383,1094 L290,1124 L383,1154 Z M476,1124 L476,1026 L533,947 L533,1045 Z M290,1379 L233,1458 L140,1488 L198,1409 Z M290,1379 L290,1282 L233,1203 L233,1300 Z M326,1586 L233,1555 L140,1586 L233,1616 Z M383,1507 L383,1409 L326,1488 L326,1586 Z M440,1586 L440,1488 L383,1409 L383,1507 Z M290,1695 L198,1665 L140,1586 L233,1616 Z M383,1762 L326,1841 L233,1871 L290,1792 Z M290,1792 L290,1695 L233,1774 L233,1871 Z M290,1950 L290,2048 L233,2126 L233,2029 Z M476,1950 L383,1920 L290,1950 L383,1980 Z M533,2029 L533,2126 L476,2048 L476,1950 Z M533,2126 L476,2205 L383,2235 L440,2157 Z M533,2126 L533,2224 L476,2303 L476,2205 Z M626,2412 L533,2382 L440,2412 L533,2442 Z M626,2412 L533,2382 L476,2303 L569,2333 Z M626,2509 L569,2588 L476,2618 L533,2540 Z M776,2618 L683,2588 L626,2509 L719,2540 Z M776,2618 L776,2716 L719,2795 L719,2697 Z M833,2697 L833,2795 L776,2716 L776,2618 Z M776,2521 L776,2618 L719,2540 L719,2442 Z M719,2795 L626,2765 L533,2795 L626,2825 Z M533,2795 L440,2765 L383,2686 L476,2716 Z M533,2697 L533,2795 L476,2716 L476,2618 Z M383,2686 L326,2765 L233,2795 L290,2716 Z M476,2874 L383,2844 L290,2874 L383,2904 Z M533,2953 L533,3050 L476,2971 L476,2874 Z M533,3050 L476,3129 L383,3159 L440,3080 Z M683,3159 L683,3257 L626,3336 L626,3238 Z M569,3159 L476,3129 L383,3159 L476,3189 Z M683,2904 L591,2874 L533,2795 L626,2825 Z M683,2904 L683,3001 L626,3080 L626,2983 Z M776,2971 L719,3050 L626,3080 L683,3001 Z M926,3080 L833,3050 L776,2971 L869,3001 Z M926,2983 L926,3080 L869,3001 L869,2904 Z M1019,2795 L962,2874 L869,2904 L926,2825 Z M1019,2795 L926,2765 L833,2795 L926,2825 Z M1019,2697 L926,2667 L869,2588 L962,2618 Z M1169,2588 L1112,2667 L1019,2697 L1076,2618 Z M1262,2618 L1262,2716 L1204,2795 L1204,2697 Z M1169,2491 L1169,2588 L1112,2509 L1112,2412 Z M1204,2795 L1112,2765 L1019,2795 L1112,2825 Z M1262,2874 L1262,2971 L1319,3050 L1319,2953 Z M1169,2904 L1076,2874 L1019,2795 L1112,2825 Z M1169,2904 L1169,3001 L1112,3080 L1112,2983 Z M1354,2904 L1262,2874 L1319,2953 L1412,2983 Z M1319,3050 L1262,3129 L1169,3159 L1226,3080 Z M1505,3050 L1597,3080 L1655,3159 L1562,3129 Z M1469,3159 L1469,3257 L1412,3336 L1412,3238 Z M1354,3159 L1262,3129 L1169,3159 L1262,3189 Z M1354,3159 L1354,3257 L1412,3336 L1412,3238 Z M1262,3287 L1169,3257 L1226,3336 L1319,3366 Z M1319,3366 L1319,3463 L1262,3542 L1262,3445 Z M1505,3366 L1505,3463 L1562,3542 L1562,3445 Z M1412,3433 L1354,3512 L1262,3542 L1319,3463 Z M1412,3433 L1505,3463 L1562,3542 L1469,3512 Z M1562,3542 L1655,3572 L1712,3651 L1619,3621 Z M1655,3512 L1747,3542 L1655,3572 L1562,3542 Z M1505,3621 L1505,3719 L1562,3797 L1562,3700 Z M1805,3366 L1805,3463 L1747,3542 L1747,3445 Z M1955,3512 L1897,3591 L1805,3621 L1862,3542 Z M1897,3591 L1990,3621 L1897,3651 L1805,3621 Z M1897,3336 L1990,3366 L2048,3445 L1955,3415 Z M1897,3336 L1897,3433 L1955,3512 L1955,3415 Z M2198,3336 L2140,3415 L2048,3445 L2105,3366 Z M2198,3336 L2198,3433 L2140,3512 L2140,3415 Z M2140,3159 L2140,3257 L2198,3336 L2198,3238 Z M1955,3159 L1955,3257 L1897,3336 L1897,3238 Z M2048,3129 L2140,3159 L2048,3189 L1955,3159 Z M1840,3159 L1840,3257 L1897,3336 L1897,3238 Z M1747,3129 L1840,3159 L1747,3189 L1655,3159 Z M1655,3257 L1597,3336 L1505,3366 L1562,3287 Z M1655,3257 L1747,3287 L1805,3366 L1712,3336 Z M1562,3129 L1655,3159 L1562,3189 L1469,3159 Z M1805,3050 L1747,3129 L1655,3159 L1712,3080 Z M1955,2904 L1955,3001 L1897,3080 L1897,2983 Z M2048,2971 L1990,3050 L1897,3080 L1955,3001 Z M2048,2971 L2140,3001 L2198,3080 L2105,3050 Z M2140,2904 L2140,3001 L2198,3080 L2198,2983 Z M2290,2795 L2233,2874 L2140,2904 L2198,2825 Z M2383,2765 L2476,2795 L2533,2874 L2440,2844 Z M2348,2874 L2348,2971 L2290,3050 L2290,2953 Z M2198,2765 L2290,2795 L2198,2825 L2105,2795 Z M2440,2588 L2383,2667 L2290,2697 L2348,2618 Z M2440,2588 L2440,2686 L2383,2765 L2383,2667 Z M2198,2412 L2140,2491 L2048,2521 L2105,2442 Z M2198,2412 L2198,2509 L2140,2588 L2140,2491 Z M2048,2303 L2140,2333 L2048,2363 L1955,2333 Z M2140,2235 L2140,2333 L2198,2254 L2198,2157 Z M1955,2235 L1955,2333 L1897,2254 L1897,2157 Z M2533,2618 L2590,2540 L2683,2509 L2626,2588 Z M2533,2618 L2533,2716 L2590,2795 L2590,2697 Z M2440,2491 L2440,2588 L2498,2509 L2498,2412 Z M2590,2795 L2683,2825 L2776,2795 L2683,2765 Z M2533,2874 L2626,2904 L2683,2983 L2590,2953 Z M2533,2874 L2533,2971 L2590,3050 L2590,2953 Z M2440,2844 L2533,2874 L2440,2904 L2348,2874 Z M2590,3050 L2533,3129 L2440,3159 L2498,3080 Z M2533,3129 L2626,3159 L2533,3189 L2440,3159 Z M2776,3050 L2869,3080 L2926,3159 L2833,3129 Z M2741,3159 L2833,3189 L2926,3159 L2833,3129 Z M2741,3159 L2741,3257 L2683,3336 L2683,3238 Z M2626,3159 L2626,3257 L2683,3336 L2683,3238 Z M2741,2904 L2683,2983 L2776,2953 L2833,2874 Z M2833,2874 L2833,2971 L2776,3050 L2776,2953 Z M2776,2697 L2776,2795 L2833,2716 L2833,2618 Z M2833,2618 L2833,2716 L2891,2795 L2891,2697 Z M2683,2509 L2776,2540 L2833,2618 L2741,2588 Z M2741,2333 L2833,2363 L2926,2333 L2833,2303 Z M2776,2442 L2833,2363 L2926,2333 L2869,2412 Z M2776,2442 L2776,2540 L2833,2618 L2833,2521 Z M2926,2333 L2983,2254 L3076,2224 L3019,2303 Z M2983,2412 L3076,2442 L3169,2412 L3076,2382 Z M2926,2235 L2926,2333 L2983,2254 L2983,2157 Z M2833,2048 L2926,2078 L2983,2157 L2891,2126 Z M2833,1950 L2891,1871 L2983,1841 L2926,1920 Z M2833,1950 L2926,1980 L3019,1950 L2926,1920 Z M3019,1950 L3019,2047 L3076,2126 L3076,2029 Z M3076,2029 L3076,2126 L3133,2047 L3133,1950 Z M3169,2157 L3226,2078 L3319,2047 L3262,2126 Z M3169,2157 L3169,2254 L3226,2333 L3226,2235 Z M3076,2224 L3169,2254 L3226,2333 L3133,2303 Z M3226,2333 L3319,2363 L3412,2333 L3319,2303 Z M3226,2333 L3319,2363 L3376,2442 L3284,2412 Z M3169,2412 L3169,2509 L3226,2588 L3226,2491 Z M3412,2235 L3412,2333 L3469,2254 L3469,2157 Z M3469,2412 L3526,2333 L3619,2303 L3562,2382 Z M3469,2412 L3562,2442 L3655,2412 L3562,2382 Z M3562,2126 L3655,2157 L3712,2235 L3619,2205 Z M3562,2126 L3562,2224 L3619,2303 L3619,2205 Z M3712,2235 L3769,2157 L3862,2126 L3805,2205 Z M3805,2205 L3805,2303 L3862,2224 L3862,2126 Z M3805,1950 L3805,2047 L3862,2126 L3862,2029 Z M3619,1950 L3712,1980 L3805,1950 L3712,1920 Z M3562,1871 L3619,1792 L3712,1762 L3655,1841 Z M3562,1871 L3562,1774 L3619,1695 L3619,1792 Z M3562,2029 L3562,2126 L3619,2047 L3619,1950 Z M3504,1950 L3504,2047 L3562,2126 L3562,2029 Z M3319,2047 L3412,2078 L3469,2157 L3376,2126 Z M3319,1950 L3376,1871 L3469,1841 L3412,1920 Z M3319,1950 L3412,1980 L3504,1950 L3412,1920 Z M3133,1950 L3226,1980 L3319,1950 L3226,1920 Z M3169,1841 L3262,1871 L3319,1950 L3226,1920 Z M3169,1841 L3169,1743 L3226,1665 L3226,1762 Z M3076,1774 L3133,1695 L3226,1665 L3169,1743 Z M3226,1665 L3284,1586 L3376,1555 L3319,1634 Z M3226,1665 L3319,1695 L3412,1665 L3319,1634 Z M3169,1586 L3169,1488 L3226,1409 L3226,1507 Z M3412,1762 L3412,1665 L3469,1743 L3469,1841 Z M3712,1762 L3805,1792 L3862,1871 L3769,1841 Z M3805,1792 L3805,1695 L3862,1774 L3862,1871 Z M3805,1695 L3862,1616 L3955,1586 L3897,1665 Z M3769,1586 L3862,1616 L3955,1586 L3862,1555 Z M3712,1507 L3712,1409 L3769,1488 L3769,1586 Z M3805,1379 L3897,1409 L3955,1488 L3862,1458 Z M3805,1379 L3805,1282 L3862,1203 L3862,1300 Z M3712,1312 L3769,1233 L3862,1203 L3805,1282 Z M3562,1203 L3655,1233 L3712,1312 L3619,1282 Z M3619,1124 L3712,1154 L3805,1124 L3712,1094 Z M3619,1124 L3619,1026 L3562,947 L3562,1045 Z M3469,1173 L3562,1203 L3504,1124 L3412,1094 Z M3562,1300 L3562,1203 L3619,1282 L3619,1379 Z M3319,1379 L3412,1409 L3469,1488 L3376,1458 Z M3319,1379 L3319,1282 L3262,1203 L3262,1300 Z M3319,1379 L3319,1282 L3376,1203 L3376,1300 Z M3376,1203 L3469,1233 L3562,1203 L3469,1173 Z M3133,1379 L3226,1409 L3169,1330 L3076,1300 Z M3076,1203 L3133,1124 L3226,1094 L3169,1173 Z M3076,1203 L3169,1233 L3262,1203 L3169,1173 Z M2983,1173 L3076,1203 L3019,1124 L2926,1094 Z M2891,1203 L2983,1233 L3076,1203 L2983,1173 Z M2926,1094 L2926,996 L2983,917 L2983,1015 Z M2833,1124 L2833,1026 L2776,947 L2776,1045 Z M2983,917 L3076,947 L3169,917 L3076,887 Z M3076,887 L3169,917 L3112,838 L3019,808 Z M3226,1094 L3226,996 L3169,917 L3169,1015 Z M3226,996 L3319,1026 L3262,947 L3169,917 Z M3319,1026 L3376,947 L3469,917 L3412,996 Z M3412,838 L3412,741 L3469,662 L3469,759 Z M3226,838 L3319,868 L3412,838 L3319,808 Z M3226,838 L3226,741 L3169,662 L3169,759 Z M3169,662 L3226,583 L3319,553 L3262,632 Z M3076,632 L3076,534 L3019,455 L3019,553 Z M3076,632 L3076,534 L3133,455 L3133,553 Z M3019,808 L3019,711 L3076,632 L3076,729 Z M3133,455 L3226,485 L3319,455 L3226,425 Z M3376,632 L3469,662 L3412,583 L3319,553 Z M3526,838 L3526,741 L3469,662 L3469,759 Z M3412,1094 L3412,996 L3469,917 L3469,1015 Z M2833,455 L2891,376 L2983,346 L2926,425 Z M2833,455 L2926,485 L3019,455 L2926,425 Z M2776,376 L2776,279 L2833,200 L2833,298 Z M2776,632 L2776,534 L2833,455 L2833,553 Z M2926,741 L2983,662 L3076,632 L3019,711 Z M2833,711 L2926,741 L2869,662 L2776,632 Z M2741,838 L2833,868 L2926,838 L2833,808 Z M2741,838 L2741,741 L2683,662 L2683,759 Z M2776,947 L2833,868 L2926,838 L2869,917 Z M2741,1094 L2833,1124 L2776,1045 L2683,1015 Z M2533,1124 L2590,1045 L2683,1015 L2626,1094 Z M2533,1124 L2533,1026 L2590,947 L2590,1045 Z M2590,1203 L2683,1233 L2776,1203 L2683,1173 Z M2833,1379 L2833,1282 L2776,1203 L2776,1300 Z M2833,1379 L2833,1282 L2891,1203 L2891,1300 Z M2926,1409 L2983,1330 L3076,1300 L3019,1379 Z M2776,1555 L2776,1458 L2833,1379 L2833,1477 Z M2983,1586 L3076,1616 L3169,1586 L3076,1555 Z M2983,1586 L2983,1488 L2926,1409 L2926,1507 Z M2926,1665 L3019,1695 L3076,1774 L2983,1743 Z M2833,1634 L2926,1665 L2869,1586 L2776,1555 Z M2926,1762 L2926,1665 L2983,1743 L2983,1841 Z M2741,1665 L2833,1695 L2926,1665 L2833,1634 Z M2683,1488 L2741,1409 L2833,1379 L2776,1458 Z M2498,917 L2590,947 L2533,868 L2440,838 Z M2440,838 L2533,868 L2626,838 L2533,808 Z M2440,741 L2498,662 L2590,632 L2533,711 Z M2348,711 L2440,741 L2383,662 L2290,632 Z M2290,632 L2290,534 L2348,455 L2348,553 Z M2198,662 L2105,632 L2048,553 L2140,583 Z M2198,662 L2198,564 L2140,485 L2140,583 Z M2348,455 L2440,485 L2533,455 L2440,425 Z M2440,425 L2533,455 L2476,376 L2383,346 Z M2590,632 L2590,534 L2533,455 L2533,553 Z M2590,534 L2683,564 L2626,485 L2533,455 Z M2683,564 L2741,485 L2833,455 L2776,534 Z M2590,376 L2683,407 L2776,376 L2683,346 Z M2590,376 L2590,279 L2533,200 L2533,298 Z M2383,346 L2383,249 L2440,170 L2440,267 Z M2290,279 L2348,200 L2440,170 L2383,249 Z M2290,279 L2198,249 L2140,170 L2233,200 Z M2105,376 L2105,279 L2048,200 L2048,298 Z M2198,407 L2105,376 L2198,346 L2290,376 Z M2140,485 L2198,407 L2290,376 L2233,455 Z M1990,376 L1990,279 L2048,200 L2048,298 Z M2626,838 L2626,741 L2683,662 L2683,759 Z M2255,838 L2348,868 L2440,838 L2348,808 Z M2255,838 L2255,741 L2198,662 L2198,759 Z M2140,838 L2140,741 L2198,662 L2198,759 Z M2290,947 L2348,868 L2440,838 L2383,917 Z M3319,1477 L3319,1379 L3376,1458 L3376,1555 Z M3469,1586 L3562,1616 L3655,1586 L3562,1555 Z M3469,1586 L3562,1616 L3619,1695 L3526,1665 Z M3469,1488 L3526,1409 L3619,1379 L3562,1458 Z M3655,1586 L3655,1488 L3712,1409 L3712,1507 Z M3955,1841 L3955,1743 L4012,1665 L4012,1762 Z M3862,2029 L3862,2126 L3919,2047 L3919,1950 Z M3955,2157 L3955,2254 L4012,2333 L4012,2235 Z M3805,2303 L3897,2333 L3955,2412 L3862,2382 Z M3769,2412 L3862,2442 L3955,2412 L3862,2382 Z M3805,2618 L3862,2540 L3955,2509 L3897,2588 Z M3805,2618 L3805,2716 L3862,2795 L3862,2697 Z M3712,2686 L3805,2716 L3862,2795 L3769,2765 Z M3619,2874 L3712,2904 L3805,2874 L3712,2844 Z M3562,2795 L3619,2716 L3712,2686 L3655,2765 Z M3562,2697 L3562,2795 L3619,2716 L3619,2618 Z M3469,2509 L3562,2540 L3619,2618 L3526,2588 Z M3655,2412 L3655,2509 L3712,2588 L3712,2491 Z M3712,2491 L3712,2588 L3769,2509 L3769,2412 Z M3319,2618 L3376,2540 L3469,2509 L3412,2588 Z M3319,2618 L3319,2716 L3376,2795 L3376,2697 Z M3319,2521 L3319,2618 L3376,2540 L3376,2442 Z M3076,2697 L3133,2618 L3226,2588 L3169,2667 Z M3262,2697 L3262,2795 L3319,2716 L3319,2618 Z M3076,2795 L3169,2825 L3262,2795 L3169,2765 Z M3076,2795 L3169,2825 L3226,2904 L3133,2874 Z M3376,2795 L3469,2825 L3562,2795 L3469,2765 Z M3412,2904 L3469,2825 L3562,2795 L3504,2874 Z M3412,2904 L3412,3001 L3469,3080 L3469,2983 Z M3319,2971 L3412,3001 L3469,3080 L3376,3050 Z M3562,3050 L3655,3080 L3712,3159 L3619,3129 Z M3526,3159 L3619,3189 L3712,3159 L3619,3129 Z M3412,3159 L3412,3257 L3469,3336 L3469,3238 Z M3562,2953 L3562,3050 L3619,2971 L3619,2874 Z M3469,3238 L3469,3336 L3526,3257 L3526,3159 Z M3469,3336 L3469,3433 L3412,3512 L3412,3415 Z M3376,3366 L3319,3445 L3412,3415 L3469,3336 Z M3226,3572 L3169,3651 L3262,3621 L3319,3542 Z M3169,3336 L3262,3366 L3319,3445 L3226,3415 Z M3076,3366 L3076,3463 L3133,3542 L3133,3445 Z M3076,3366 L3076,3463 L3019,3542 L3019,3445 Z M3226,3159 L3319,3189 L3412,3159 L3319,3129 Z M3226,3159 L3226,3257 L3169,3336 L3169,3238 Z M3169,3080 L3226,3001 L3319,2971 L3262,3050 Z M3076,3110 L3019,3189 L3112,3159 L3169,3080 Z M3169,2983 L3169,3080 L3226,3001 L3226,2904 Z M2926,2904 L2983,2825 L3076,2795 L3019,2874 Z M2926,2904 L2926,3001 L2983,3080 L2983,2983 Z M2983,3080 L3076,3110 L3169,3080 L3076,3050 Z M3019,3189 L3019,3287 L3076,3366 L3076,3268 Z M2926,3257 L3019,3287 L3076,3366 L2983,3336 Z M2833,3287 L2776,3366 L2869,3336 L2926,3257 Z M2776,3366 L2776,3463 L2833,3542 L2833,3445 Z M2833,3542 L2926,3572 L3019,3542 L2926,3512 Z M2833,3542 L2926,3572 L2983,3651 L2891,3621 Z M3133,3542 L3226,3572 L3319,3542 L3226,3512 Z M2983,3651 L2983,3749 L2926,3828 L2926,3730 Z M2983,3749 L2926,3828 L3019,3797 L3076,3719 Z M2833,3797 L2776,3876 L2683,3907 L2741,3828 Z M2776,3621 L2776,3719 L2833,3797 L2833,3700 Z M2683,3591 L2776,3621 L2683,3651 L2590,3621 Z M2533,3797 L2626,3828 L2683,3907 L2590,3876 Z M2590,3621 L2590,3719 L2533,3797 L2533,3700 Z M2533,3542 L2476,3621 L2383,3651 L2440,3572 Z M2383,3651 L2383,3749 L2440,3828 L2440,3730 Z M2440,3828 L2440,3925 L2498,4004 L2498,3907 Z M2440,3828 L2440,3925 L2383,4004 L2383,3907 Z M2290,3719 L2233,3797 L2140,3828 L2198,3749 Z M2290,3719 L2383,3749 L2440,3828 L2348,3797 Z M2140,3828 L2140,3925 L2198,4004 L2198,3907 Z M2290,3974 L2383,4004 L2290,4034 L2198,4004 Z M2048,3895 L1990,3974 L1897,4004 L1955,3925 Z M2048,3895 L2140,3925 L2198,4004 L2105,3974 Z M1805,3974 L1897,4004 L1805,4034 L1712,4004 Z M1955,3828 L1955,3925 L1897,4004 L1897,3907 Z M1805,3719 L1747,3797 L1655,3828 L1712,3749 Z M1805,3719 L1897,3749 L1955,3828 L1862,3797 Z M1990,3621 L1990,3719 L2048,3797 L2048,3700 Z M2105,3621 L2105,3719 L2048,3797 L2048,3700 Z M2198,3591 L2290,3621 L2198,3651 L2105,3621 Z M2140,3512 L2233,3542 L2290,3621 L2198,3591 Z M2290,3366 L2290,3463 L2348,3542 L2348,3445 Z M2440,3257 L2383,3336 L2290,3366 L2348,3287 Z M2440,3257 L2533,3287 L2590,3366 L2498,3336 Z M2255,3159 L2255,3257 L2198,3336 L2198,3238 Z M2348,3129 L2440,3159 L2348,3189 L2255,3159 Z M2290,3050 L2383,3080 L2440,3159 L2348,3129 Z M2590,3366 L2590,3463 L2533,3542 L2533,3445 Z M2683,3433 L2626,3512 L2533,3542 L2590,3463 Z M2683,3433 L2776,3463 L2833,3542 L2741,3512 Z M2440,3512 L2533,3542 L2440,3572 L2348,3542 Z M1655,3828 L1655,3925 L1712,4004 L1712,3907 Z M1655,3828 L1655,3925 L1597,4004 L1597,3907 Z M1712,3651 L1712,3749 L1655,3828 L1655,3730 Z M1562,3797 L1505,3876 L1412,3907 L1469,3828 Z M1262,3797 L1354,3828 L1412,3907 L1319,3876 Z M1319,3621 L1319,3719 L1262,3797 L1262,3700 Z M1412,3591 L1505,3621 L1412,3651 L1319,3621 Z M1262,3542 L1204,3621 L1112,3651 L1169,3572 Z M1262,3542 L1169,3512 L1076,3542 L1169,3572 Z M1169,3257 L1112,3336 L1019,3366 L1076,3287 Z M1076,3189 L1076,3287 L1019,3366 L1019,3268 Z M1112,3080 L1019,3050 L926,3080 L1019,3110 Z M1019,3110 L926,3080 L983,3159 L1076,3189 Z M869,3159 L776,3129 L683,3159 L776,3189 Z M869,3159 L869,3257 L926,3336 L926,3238 Z M926,3336 L869,3415 L776,3445 L833,3366 Z M1019,3366 L1019,3463 L1076,3542 L1076,3445 Z M1019,3366 L1019,3463 L962,3542 L962,3445 Z M962,3542 L869,3512 L776,3542 L869,3572 Z M869,3572 L776,3542 L833,3621 L926,3651 Z M719,3366 L626,3336 L683,3415 L776,3445 Z M626,3336 L626,3433 L683,3512 L683,3415 Z M626,3238 L626,3336 L569,3257 L569,3159 Z M1112,3749 L1019,3719 L1076,3797 L1169,3828 Z M1112,3651 L1112,3749 L1169,3828 L1169,3730 Z M2891,2795 L2983,2825 L3076,2795 L2983,2765 Z M2926,2588 L3019,2618 L3076,2697 L2983,2667 Z M2926,2491 L2926,2588 L2983,2509 L2983,2412 Z M2683,2157 L2741,2078 L2833,2048 L2776,2126 Z M2683,2157 L2683,2254 L2741,2333 L2741,2235 Z M290,2618 L198,2588 L140,2509 L233,2540 Z M290,2618 L290,2716 L233,2795 L233,2697 Z M326,2412 L233,2382 L140,2412 L233,2442 Z M383,2491 L383,2588 L326,2509 L326,2412 Z M440,2412 L440,2509 L383,2588 L383,2491 Z M290,2303 L233,2382 L140,2412 L198,2333 Z M383,2235 L290,2205 L233,2126 L326,2157 Z M290,2205 L290,2303 L233,2224 L233,2126 Z M140,2157 L140,2254 L83,2333 L83,2235 Z M233,2029 L233,2126 L176,2048 L176,1950 Z M140,1841 L140,1743 L83,1665 L83,1762 Z M1019,2029 L1019,2126 L962,2048 L962,1950 Z M1169,1762 L1169,1665 L1112,1743 L1112,1841 Z M1655,2844 L1747,2874 L1655,2904 L1562,2874 Z M2198,1841 L2198,1743 L2140,1665 L2140,1762 Z M1319,947 L1226,917 L1169,838 L1262,868 Z M1169,1094 L1169,996 L1112,917 L1112,1015 Z M1019,887 L1076,808 L983,838 L926,917 Z M1505,534 L1562,455 L1469,485 L1412,564 Z M1655,425 L1712,346 L1619,376 L1562,455 Z M2590,2029 L2590,2126 L2648,2048 L2648,1950 Z " fill="rgb(29, 32, 33)"/>
<path d="M2048,1950 L2105,1871 L2048,1792 L1990,1871 Z M2048,1950 L2048,2048 L1955,2078 L1955,1980 Z M2048,1950 L2048,2048 L2140,2078 L2140,1980 Z M2140,1920 L2233,1950 L2290,1871 L2198,1841 Z M1955,1920 L1897,1841 L1805,1871 L1862,1950 Z M2233,1950 L2233,2048 L2140,2078 L2140,1980 Z M2290,2029 L2348,1950 L2290,1871 L2233,1950 Z M2290,2126 L2233,2048 L2140,2078 L2198,2157 Z M2290,2126 L2383,2157 L2440,2078 L2348,2048 Z M2290,2126 L2290,2224 L2198,2254 L2198,2157 Z M2348,2205 L2348,2303 L2440,2333 L2440,2235 Z M2383,2157 L2440,2078 L2498,2157 L2440,2235 Z M2290,2224 L2348,2303 L2255,2333 L2198,2254 Z M2290,2382 L2383,2412 L2440,2333 L2348,2303 Z M2440,2333 L2498,2412 L2590,2382 L2533,2303 Z M2533,2303 L2626,2333 L2683,2254 L2590,2224 Z M2498,2412 L2498,2509 L2590,2540 L2590,2442 Z M2383,2412 L2440,2333 L2498,2412 L2440,2491 Z M2383,2412 L2383,2509 L2290,2540 L2290,2442 Z M2440,2235 L2440,2333 L2533,2303 L2533,2205 Z M2590,2126 L2683,2157 L2741,2078 L2648,2048 Z M2590,2126 L2590,2224 L2683,2254 L2683,2157 Z M2440,2078 L2498,2157 L2590,2126 L2533,2048 Z M2440,1980 L2440,2078 L2533,2048 L2533,1950 Z M2533,1950 L2590,1871 L2648,1950 L2590,2029 Z M2348,1950 L2290,1871 L2383,1841 L2440,1920 Z M2348,1950 L2348,2048 L2440,2078 L2440,1980 Z M2440,1920 L2498,1841 L2440,1762 L2383,1841 Z M2440,1920 L2533,1950 L2590,1871 L2498,1841 Z M2440,1762 L2440,1665 L2533,1695 L2533,1792 Z M2590,1871 L2648,1950 L2741,1920 L2683,1841 Z M2590,1871 L2590,1774 L2683,1743 L2683,1841 Z M2683,1841 L2776,1871 L2833,1792 L2741,1762 Z M2648,1950 L2648,2048 L2741,2078 L2741,1980 Z M2590,1774 L2533,1695 L2626,1665 L2683,1743 Z M2683,1743 L2741,1665 L2683,1586 L2626,1665 Z M2440,1665 L2498,1586 L2440,1507 L2383,1586 Z M2440,1665 L2533,1695 L2590,1616 L2498,1586 Z M2348,1695 L2290,1616 L2383,1586 L2440,1665 Z M2498,1586 L2498,1488 L2590,1458 L2590,1555 Z M2590,1555 L2590,1458 L2683,1488 L2683,1586 Z M2498,1488 L2440,1409 L2533,1379 L2590,1458 Z M2440,1409 L2440,1312 L2533,1282 L2533,1379 Z M2533,1379 L2626,1409 L2683,1330 L2590,1300 Z M2440,1312 L2383,1233 L2476,1203 L2533,1282 Z M2533,1282 L2590,1203 L2533,1124 L2476,1203 Z M2290,1203 L2348,1124 L2290,1045 L2233,1124 Z M2290,1203 L2383,1233 L2440,1154 L2348,1124 Z M2348,1124 L2348,1026 L2440,996 L2440,1094 Z M2290,1300 L2290,1203 L2383,1233 L2383,1330 Z M2198,1330 L2198,1233 L2290,1203 L2290,1300 Z M2290,1458 L2348,1379 L2290,1300 L2233,1379 Z M2290,1458 L2383,1488 L2440,1409 L2348,1379 Z M2198,1488 L2140,1409 L2233,1379 L2290,1458 Z M2290,1555 L2290,1458 L2383,1488 L2383,1586 Z M2198,1586 L2198,1488 L2290,1458 L2290,1555 Z M2048,1477 L2048,1379 L1955,1409 L1955,1507 Z M2048,1477 L2048,1379 L2140,1409 L2140,1507 Z M2048,1634 L1990,1555 L1897,1586 L1955,1665 Z M2048,1634 L2105,1555 L2048,1477 L1990,1555 Z M2048,1634 L2140,1665 L2198,1586 L2105,1555 Z M1897,1586 L1897,1488 L1805,1458 L1805,1555 Z M1805,1555 L1805,1458 L1712,1488 L1712,1586 Z M1897,1488 L1805,1458 L1862,1379 L1955,1409 Z M1805,1458 L1747,1379 L1655,1409 L1712,1488 Z M1805,1458 L1862,1379 L1805,1300 L1747,1379 Z M1805,1300 L1805,1203 L1712,1233 L1712,1330 Z M1897,1330 L1897,1233 L1805,1203 L1805,1300 Z M1805,1203 L1747,1124 L1655,1154 L1712,1233 Z M1805,1203 L1862,1124 L1805,1045 L1747,1124 Z M1747,1124 L1747,1026 L1655,996 L1655,1094 Z M1990,1203 L1897,1173 L1955,1094 L2048,1124 Z M2048,1282 L2105,1203 L2048,1124 L1990,1203 Z M2048,1124 L2048,1026 L2140,996 L2140,1094 Z M2048,1124 L2048,1026 L1955,996 L1955,1094 Z M1990,1300 L1990,1203 L1897,1233 L1897,1330 Z M2048,1379 L1990,1300 L1897,1330 L1955,1409 Z M2048,1379 L2140,1409 L2198,1330 L2105,1300 Z M2105,1300 L2105,1203 L2198,1233 L2198,1330 Z M2105,1203 L2048,1124 L2140,1094 L2198,1173 Z M2140,1094 L2233,1124 L2290,1045 L2198,1015 Z M1955,1094 L1897,1015 L1805,1045 L1862,1124 Z M2048,1026 L2105,947 L2048,868 L1990,947 Z M1990,947 L1897,917 L1955,838 L2048,868 Z M2105,947 L2048,868 L2140,838 L2198,917 Z M1897,917 L1840,838 L1747,868 L1805,947 Z M1897,917 L1955,838 L1897,759 L1840,838 Z M1840,838 L1840,741 L1747,711 L1747,808 Z M1955,838 L1955,741 L2048,711 L2048,808 Z M1897,1015 L1897,917 L1805,947 L1805,1045 Z M1955,741 L1897,662 L1990,632 L2048,711 Z M2048,711 L2105,632 L2048,553 L1990,632 Z M1897,662 L1897,564 L1805,534 L1805,632 Z M1840,741 L1747,711 L1805,632 L1897,662 Z M1955,583 L1955,485 L2048,455 L2048,553 Z M1805,632 L1747,553 L1655,583 L1712,662 Z M1897,564 L1805,534 L1862,455 L1955,485 Z M1955,485 L1897,407 L1990,376 L2048,455 Z M1805,534 L1862,455 L1805,376 L1747,455 Z M1747,455 L1655,425 L1712,346 L1805,376 Z M1805,376 L1805,279 L1897,249 L1897,346 Z M1805,376 L1805,279 L1712,249 L1712,346 Z M1712,346 L1655,267 L1562,298 L1619,376 Z M1805,279 L1862,200 L1805,121 L1747,200 Z M1747,200 L1655,170 L1712,91 L1805,121 Z M1862,200 L1805,121 L1897,91 L1955,170 Z M1655,170 L1597,91 L1505,121 L1562,200 Z M1655,267 L1655,170 L1562,200 L1562,298 Z M1505,376 L1505,279 L1412,249 L1412,346 Z M1562,455 L1505,376 L1412,407 L1469,485 Z M1562,455 L1619,376 L1562,298 L1505,376 Z M1412,346 L1412,249 L1319,279 L1319,376 Z M1505,279 L1412,249 L1469,170 L1562,200 Z M1412,249 L1354,170 L1262,200 L1319,279 Z M1204,376 L1112,346 L1169,267 L1262,298 Z M1112,346 L1112,249 L1019,279 L1019,376 Z M1169,425 L1112,346 L1019,376 L1076,455 Z M1262,455 L1319,376 L1262,298 L1204,376 Z M1354,485 L1262,455 L1319,376 L1412,407 Z M1262,553 L1262,455 L1169,485 L1169,583 Z M1169,583 L1169,485 L1076,455 L1076,553 Z M1319,632 L1262,553 L1169,583 L1226,662 Z M1412,662 L1412,564 L1319,534 L1319,632 Z M1505,632 L1505,534 L1412,564 L1412,662 Z M1354,741 L1262,711 L1319,632 L1412,662 Z M1412,564 L1469,485 L1412,407 L1354,485 Z M1354,838 L1354,741 L1262,711 L1262,808 Z M1412,917 L1354,838 L1262,868 L1319,947 Z M1412,917 L1469,838 L1412,759 L1354,838 Z M1262,808 L1262,711 L1169,741 L1169,838 Z M1169,838 L1169,741 L1076,711 L1076,808 Z M1112,917 L1019,887 L1076,808 L1169,838 Z M1076,808 L1019,729 L926,759 L983,838 Z M1169,741 L1226,662 L1169,583 L1112,662 Z M1112,662 L1019,632 L1076,553 L1169,583 Z M1019,632 L962,553 L869,583 L926,662 Z M962,553 L962,455 L869,485 L869,583 Z M1019,534 L1076,455 L1019,376 L962,455 Z M1019,729 L1019,632 L926,662 L926,759 Z M869,838 L869,741 L776,711 L776,808 Z M926,917 L869,838 L776,868 L833,947 Z M926,917 L983,838 L926,759 L869,838 Z M776,808 L776,711 L683,741 L683,838 Z M869,741 L776,711 L833,632 L926,662 Z M776,711 L719,632 L626,662 L683,741 Z M776,711 L833,632 L776,553 L719,632 Z M869,583 L869,485 L776,455 L776,553 Z M962,455 L869,425 L926,346 L1019,376 Z M626,917 L569,838 L476,868 L533,947 Z M626,917 L683,838 L626,759 L569,838 Z M719,947 L626,917 L683,838 L776,868 Z M626,1015 L626,917 L533,947 L533,1045 Z M683,1094 L626,1015 L533,1045 L591,1124 Z M776,1124 L776,1026 L683,996 L683,1094 Z M869,1094 L869,996 L776,1026 L776,1124 Z M719,1203 L626,1173 L683,1094 L776,1124 Z M776,1026 L833,947 L776,868 L719,947 Z M776,1282 L833,1203 L776,1124 L719,1203 Z M719,1300 L719,1203 L626,1233 L626,1330 Z M626,1330 L533,1300 L476,1379 L569,1409 Z M626,1330 L626,1233 L533,1203 L533,1300 Z M776,1379 L719,1300 L626,1330 L683,1409 Z M683,1409 L626,1488 L569,1409 L626,1330 Z M869,1409 L776,1379 L833,1300 L926,1330 Z M719,1555 L719,1458 L626,1488 L626,1586 Z M869,1507 L776,1477 L719,1555 L811,1586 Z M869,1507 L869,1409 L776,1379 L776,1477 Z M926,1586 L869,1665 L811,1586 L869,1507 Z M776,1634 L719,1555 L626,1586 L683,1665 Z M869,1762 L869,1665 L776,1695 L776,1792 Z M776,1792 L683,1762 L626,1841 L719,1871 Z M776,1792 L776,1695 L683,1665 L683,1762 Z M926,1841 L869,1762 L776,1792 L833,1871 Z M833,1871 L776,1950 L719,1871 L776,1792 Z M1019,1871 L926,1841 L869,1920 L962,1950 Z M1019,1871 L1019,1774 L926,1743 L926,1841 Z M1112,1841 L1112,1743 L1019,1774 L1019,1871 Z M1076,1950 L1019,2029 L962,1950 L1019,1871 Z M962,1950 L962,2048 L869,2078 L869,1980 Z M1076,1695 L1019,1774 L962,1695 L1019,1616 Z M1169,1665 L1112,1586 L1019,1616 L1076,1695 Z M1169,1665 L1226,1586 L1169,1507 L1112,1586 Z M1019,1616 L926,1586 L869,1665 L962,1695 Z M1112,1586 L1112,1488 L1019,1458 L1019,1555 Z M1019,1555 L1019,1458 L926,1488 L926,1586 Z M1112,1488 L1019,1458 L1076,1379 L1169,1409 Z M1019,1458 L962,1379 L869,1409 L926,1488 Z M1019,1458 L1076,1379 L1019,1300 L962,1379 Z M1019,1300 L1019,1203 L926,1233 L926,1330 Z M926,1330 L926,1233 L833,1203 L833,1300 Z M1112,1330 L1112,1233 L1019,1203 L1019,1300 Z M1019,1203 L1076,1124 L1019,1045 L962,1124 Z M962,1124 L869,1094 L926,1015 L1019,1045 Z M926,1173 L869,1094 L776,1124 L833,1203 Z M1204,1203 L1112,1173 L1169,1094 L1262,1124 Z M1262,1282 L1319,1203 L1262,1124 L1204,1203 Z M1262,1124 L1262,1026 L1169,996 L1169,1094 Z M1204,1300 L1204,1203 L1112,1233 L1112,1330 Z M1262,1379 L1204,1300 L1112,1330 L1169,1409 Z M1354,1409 L1262,1379 L1319,1300 L1412,1330 Z M1262,1477 L1262,1379 L1169,1409 L1169,1507 Z M1319,1555 L1262,1477 L1169,1507 L1226,1586 Z M1412,1586 L1412,1488 L1319,1458 L1319,1555 Z M1505,1555 L1505,1458 L1412,1488 L1412,1586 Z M1354,1665 L1262,1634 L1319,1555 L1412,1586 Z M1412,1488 L1469,1409 L1412,1330 L1354,1409 Z M1562,1379 L1505,1300 L1412,1330 L1469,1409 Z M1412,1330 L1412,1233 L1319,1203 L1319,1300 Z M1505,1300 L1505,1203 L1412,1233 L1412,1330 Z M1505,1203 L1412,1173 L1469,1094 L1562,1124 Z M1412,1173 L1354,1094 L1262,1124 L1319,1203 Z M1412,1173 L1469,1094 L1412,1015 L1354,1094 Z M1412,1015 L1412,917 L1319,947 L1319,1045 Z M1655,1094 L1655,996 L1562,1026 L1562,1124 Z M1505,1045 L1505,947 L1412,917 L1412,1015 Z M1655,996 L1597,917 L1505,947 L1562,1026 Z M1655,996 L1712,917 L1655,838 L1597,917 Z M1505,947 L1412,917 L1469,838 L1562,868 Z M1655,838 L1655,741 L1562,711 L1562,808 Z M1747,808 L1747,711 L1655,741 L1655,838 Z M1562,808 L1562,711 L1469,741 L1469,838 Z M1655,741 L1712,662 L1655,583 L1597,662 Z M1597,662 L1505,632 L1562,553 L1655,583 Z M1562,711 L1505,632 L1412,662 L1469,741 Z M1655,583 L1655,485 L1562,455 L1562,553 Z M1747,553 L1747,455 L1655,485 L1655,583 Z M1747,1026 L1655,996 L1712,917 L1805,947 Z M1562,1282 L1619,1203 L1562,1124 L1505,1203 Z M1655,1312 L1562,1282 L1619,1203 L1712,1233 Z M1655,1409 L1655,1312 L1562,1282 L1562,1379 Z M1597,1488 L1505,1458 L1562,1379 L1655,1409 Z M1597,1586 L1597,1488 L1505,1458 L1505,1555 Z M1655,1665 L1597,1586 L1505,1616 L1562,1695 Z M1655,1665 L1712,1586 L1655,1507 L1597,1586 Z M1747,1695 L1655,1665 L1712,1586 L1805,1616 Z M1655,1762 L1655,1665 L1562,1695 L1562,1792 Z M1747,1792 L1747,1695 L1655,1665 L1655,1762 Z M1897,1841 L1990,1871 L2048,1792 L1955,1762 Z M1897,1841 L1897,1743 L1805,1774 L1805,1871 Z M1862,1950 L1862,2048 L1955,2078 L1955,1980 Z M1747,1950 L1655,1920 L1712,1841 L1805,1871 Z M1747,1950 L1747,2048 L1655,2078 L1655,1980 Z M1897,1743 L1840,1665 L1747,1695 L1805,1774 Z M1897,1743 L1955,1665 L1897,1586 L1840,1665 Z M1655,1980 L1655,2078 L1562,2048 L1562,1950 Z M1805,2029 L1862,1950 L1805,1871 L1747,1950 Z M1655,1920 L1597,1841 L1505,1871 L1562,1950 Z M1655,1920 L1712,1841 L1655,1762 L1597,1841 Z M1655,2078 L1562,2048 L1505,2126 L1597,2157 Z M1805,2126 L1747,2048 L1655,2078 L1712,2157 Z M1805,2126 L1897,2157 L1955,2078 L1862,2048 Z M1805,2126 L1805,2224 L1897,2254 L1897,2157 Z M1712,2157 L1655,2235 L1597,2157 L1655,2078 Z M1747,2205 L1747,2303 L1655,2333 L1655,2235 Z M1805,2224 L1897,2254 L1840,2333 L1747,2303 Z M1955,2333 L1897,2412 L1840,2333 L1897,2254 Z M1955,2333 L2048,2363 L1990,2442 L1897,2412 Z M1897,2412 L1897,2509 L1805,2540 L1805,2442 Z M1955,2491 L1955,2588 L2048,2618 L2048,2521 Z M1805,2382 L1747,2303 L1655,2333 L1712,2412 Z M1897,2509 L1955,2588 L1862,2618 L1805,2540 Z M1805,2540 L1747,2618 L1805,2697 L1862,2618 Z M1955,2588 L2048,2618 L1990,2697 L1897,2667 Z M1897,2667 L1897,2765 L1805,2795 L1805,2697 Z M1897,2667 L1897,2765 L1990,2795 L1990,2697 Z M2140,2588 L2198,2667 L2105,2697 L2048,2618 Z M2048,2716 L1990,2795 L2048,2874 L2105,2795 Z M2105,2795 L2198,2825 L2140,2904 L2048,2874 Z M1990,2795 L2048,2874 L1955,2904 L1897,2825 Z M2048,2874 L2048,2971 L1955,3001 L1955,2904 Z M2048,2874 L2048,2971 L2140,3001 L2140,2904 Z M1805,2795 L1747,2874 L1805,2953 L1862,2874 Z M1862,2874 L1955,2904 L1897,2983 L1805,2953 Z M1747,2874 L1747,2971 L1655,3001 L1655,2904 Z M1712,2765 L1805,2795 L1747,2874 L1655,2844 Z M1712,2667 L1712,2765 L1805,2795 L1805,2697 Z M1655,2588 L1597,2509 L1505,2540 L1562,2618 Z M1655,2588 L1655,2686 L1562,2716 L1562,2618 Z M1562,2618 L1469,2588 L1412,2667 L1505,2697 Z M1712,2509 L1805,2540 L1747,2618 L1655,2588 Z M1655,2686 L1712,2765 L1619,2795 L1562,2716 Z M1562,2716 L1505,2795 L1562,2874 L1619,2795 Z M1505,2795 L1562,2874 L1469,2904 L1412,2825 Z M1412,2825 L1354,2904 L1412,2983 L1469,2904 Z M1412,2825 L1319,2795 L1262,2874 L1354,2904 Z M1562,2874 L1562,2971 L1655,3001 L1655,2904 Z M1505,2697 L1505,2795 L1412,2765 L1412,2667 Z M1412,2667 L1354,2588 L1262,2618 L1319,2697 Z M1412,2667 L1412,2765 L1319,2795 L1319,2697 Z M1469,2588 L1412,2667 L1354,2588 L1412,2509 Z M1412,2412 L1354,2333 L1262,2363 L1319,2442 Z M1412,2412 L1412,2509 L1319,2540 L1319,2442 Z M1319,2442 L1226,2412 L1169,2491 L1262,2521 Z M1469,2333 L1412,2412 L1354,2333 L1412,2254 Z M1505,2442 L1505,2540 L1412,2509 L1412,2412 Z M1597,2412 L1597,2509 L1505,2540 L1505,2442 Z M1655,2333 L1562,2303 L1505,2382 L1597,2412 Z M1712,2412 L1655,2491 L1597,2412 L1655,2333 Z M1712,2412 L1712,2509 L1805,2540 L1805,2442 Z M1562,2303 L1505,2224 L1412,2254 L1469,2333 Z M1655,2235 L1655,2333 L1562,2303 L1562,2205 Z M1505,2126 L1447,2048 L1354,2078 L1412,2157 Z M1505,2126 L1505,2224 L1412,2254 L1412,2157 Z M1412,2157 L1319,2126 L1262,2205 L1354,2235 Z M1447,1950 L1447,2048 L1354,2078 L1354,1980 Z M1562,1950 L1505,2029 L1447,1950 L1505,1871 Z M1505,1871 L1412,1841 L1354,1920 L1447,1950 Z M1505,1871 L1505,1774 L1412,1743 L1412,1841 Z M1412,1841 L1354,1762 L1262,1792 L1319,1871 Z M1505,1774 L1412,1743 L1469,1665 L1562,1695 Z M1412,1743 L1469,1665 L1412,1586 L1354,1665 Z M1319,1871 L1262,1950 L1204,1871 L1262,1792 Z M1354,1762 L1354,1665 L1262,1695 L1262,1792 Z M1262,1950 L1262,2048 L1169,2078 L1169,1980 Z M1169,1980 L1169,2078 L1076,2048 L1076,1950 Z M1169,1920 L1112,1841 L1019,1871 L1076,1950 Z M1354,1980 L1354,2078 L1262,2048 L1262,1950 Z M1169,2078 L1076,2048 L1019,2126 L1112,2157 Z M1319,2126 L1262,2205 L1204,2126 L1262,2048 Z M1112,2157 L1112,2254 L1019,2224 L1019,2126 Z M1262,2205 L1204,2126 L1112,2157 L1169,2235 Z M1262,2205 L1262,2303 L1169,2333 L1169,2235 Z M1354,2235 L1354,2333 L1262,2303 L1262,2205 Z M1169,2333 L1076,2303 L1019,2382 L1112,2412 Z M1226,2412 L1169,2491 L1112,2412 L1169,2333 Z M1112,2412 L1112,2509 L1019,2540 L1019,2442 Z M1076,2303 L1019,2382 L962,2303 L1019,2224 Z M1019,2382 L962,2303 L869,2333 L926,2412 Z M926,2412 L869,2491 L811,2412 L869,2333 Z M776,2363 L683,2333 L626,2412 L719,2442 Z M869,2235 L869,2333 L776,2303 L776,2205 Z M926,2157 L833,2126 L776,2205 L869,2235 Z M776,2205 L719,2126 L626,2157 L683,2235 Z M776,2205 L776,2303 L683,2333 L683,2235 Z M833,2126 L776,2205 L719,2126 L776,2048 Z M683,2078 L591,2048 L533,2126 L626,2157 Z M776,1950 L776,2048 L683,2078 L683,1980 Z M683,1980 L683,2078 L591,2048 L591,1950 Z M683,1920 L626,1841 L533,1871 L591,1950 Z M869,1980 L869,2078 L776,2048 L776,1950 Z M591,1950 L533,2029 L476,1950 L533,1871 Z M626,1841 L626,1743 L533,1774 L533,1871 Z M533,1871 L440,1841 L383,1920 L476,1950 Z M626,1743 L569,1665 L476,1695 L533,1774 Z M683,1665 L626,1743 L569,1665 L626,1586 Z M626,1586 L626,1488 L533,1458 L533,1555 Z M533,1616 L440,1586 L383,1665 L476,1695 Z M533,1555 L533,1458 L440,1488 L440,1586 Z M533,1458 L476,1379 L383,1409 L440,1488 Z M476,1379 L476,1282 L383,1312 L383,1409 Z M383,1409 L290,1379 L233,1458 L326,1488 Z M383,1409 L383,1312 L290,1282 L290,1379 Z M533,1203 L476,1124 L383,1154 L440,1233 Z M533,1203 L591,1124 L533,1045 L476,1124 Z M440,1233 L383,1312 L326,1233 L383,1154 Z M476,1124 L476,1026 L383,996 L383,1094 Z M383,1154 L290,1124 L233,1203 L326,1233 Z M383,1094 L383,996 L290,1026 L290,1124 Z M476,1026 L383,996 L440,917 L533,947 Z M290,1379 L233,1300 L140,1330 L198,1409 Z M233,1555 L233,1458 L140,1488 L140,1586 Z M326,1586 L326,1488 L233,1458 L233,1555 Z M383,1665 L326,1586 L233,1616 L290,1695 Z M440,1586 L383,1665 L326,1586 L383,1507 Z M290,1695 L198,1665 L140,1743 L233,1774 Z M383,1762 L383,1665 L290,1695 L290,1792 Z M440,1841 L383,1920 L326,1841 L383,1762 Z M476,1792 L476,1695 L383,1665 L383,1762 Z M233,1871 L140,1841 L83,1920 L176,1950 Z M233,1871 L233,1774 L140,1743 L140,1841 Z M383,1920 L326,1841 L233,1871 L290,1950 Z M290,1950 L233,2029 L176,1950 L233,1871 Z M476,1950 L476,2048 L383,2078 L383,1980 Z M383,1980 L383,2078 L290,2048 L290,1950 Z M383,2078 L290,2048 L233,2126 L326,2157 Z M533,2126 L476,2048 L383,2078 L440,2157 Z M440,2157 L383,2235 L326,2157 L383,2078 Z M476,2205 L476,2303 L383,2333 L383,2235 Z M626,2157 L626,2254 L533,2224 L533,2126 Z M626,2254 L533,2224 L476,2303 L569,2333 Z M683,2333 L626,2412 L569,2333 L626,2254 Z M626,2412 L626,2509 L533,2540 L533,2442 Z M533,2442 L533,2540 L440,2509 L440,2412 Z M533,2382 L476,2303 L383,2333 L440,2412 Z M719,2442 L719,2540 L626,2509 L626,2412 Z M533,2540 L440,2509 L383,2588 L476,2618 Z M683,2588 L626,2667 L569,2588 L626,2509 Z M776,2618 L683,2588 L626,2667 L719,2697 Z M719,2697 L719,2795 L626,2765 L626,2667 Z M833,2795 L776,2874 L719,2795 L776,2716 Z M776,2874 L719,2795 L626,2825 L683,2904 Z M776,2874 L776,2971 L683,3001 L683,2904 Z M533,2795 L440,2765 L383,2844 L476,2874 Z M626,2667 L569,2588 L476,2618 L533,2697 Z M626,2667 L626,2765 L533,2795 L533,2697 Z M476,2618 L476,2716 L383,2686 L383,2588 Z M383,2588 L326,2509 L233,2540 L290,2618 Z M383,2588 L383,2686 L290,2716 L290,2618 Z M440,2765 L383,2844 L326,2765 L383,2686 Z M383,2844 L326,2765 L233,2795 L290,2874 Z M290,2874 L233,2953 L176,2874 L233,2795 Z M476,2874 L476,2971 L383,3001 L383,2904 Z M383,2904 L383,3001 L290,2971 L290,2874 Z M533,3050 L476,2971 L383,3001 L440,3080 Z M440,3080 L383,3159 L326,3080 L383,3001 Z M626,3080 L533,3050 L476,3129 L569,3159 Z M683,3159 L626,3238 L569,3159 L626,3080 Z M569,3159 L569,3257 L476,3287 L476,3189 Z M626,2983 L626,3080 L533,3050 L533,2953 Z M683,2904 L591,2874 L533,2953 L626,2983 Z M591,2874 L533,2953 L476,2874 L533,2795 Z M833,3050 L776,3129 L719,3050 L776,2971 Z M926,3080 L869,3159 L926,3238 L983,3159 Z M926,3080 L833,3050 L776,3129 L869,3159 Z M869,2904 L869,3001 L776,2971 L776,2874 Z M926,2825 L833,2795 L776,2874 L869,2904 Z M1076,2874 L1019,2953 L962,2874 L1019,2795 Z M1019,2697 L1019,2795 L926,2765 L926,2667 Z M1112,2667 L1112,2765 L1019,2795 L1019,2697 Z M1076,2618 L1019,2697 L962,2618 L1019,2540 Z M926,2667 L869,2588 L776,2618 L833,2697 Z M926,2667 L926,2765 L833,2795 L833,2697 Z M1169,2588 L1112,2509 L1019,2540 L1076,2618 Z M1019,2540 L926,2509 L869,2588 L962,2618 Z M1019,2442 L1019,2540 L926,2509 L926,2412 Z M1262,2618 L1169,2588 L1112,2667 L1204,2697 Z M1262,2521 L1262,2618 L1169,2588 L1169,2491 Z M1204,2697 L1204,2795 L1112,2765 L1112,2667 Z M1319,2795 L1262,2874 L1204,2795 L1262,2716 Z M1262,2874 L1204,2795 L1112,2825 L1169,2904 Z M1262,2874 L1262,2971 L1169,3001 L1169,2904 Z M1169,2904 L1076,2874 L1019,2953 L1112,2983 Z M1262,2971 L1319,3050 L1226,3080 L1169,3001 Z M1169,3001 L1112,3080 L1169,3159 L1226,3080 Z M1412,3080 L1354,3159 L1412,3238 L1469,3159 Z M1412,3080 L1319,3050 L1262,3129 L1354,3159 Z M1505,3050 L1562,3129 L1469,3159 L1412,3080 Z M1469,3159 L1469,3257 L1562,3287 L1562,3189 Z M1354,3159 L1354,3257 L1262,3287 L1262,3189 Z M1412,2983 L1412,3080 L1319,3050 L1319,2953 Z M1505,2953 L1505,3050 L1412,3080 L1412,2983 Z M1262,3189 L1262,3287 L1169,3257 L1169,3159 Z M1354,3257 L1412,3336 L1319,3366 L1262,3287 Z M1412,3336 L1412,3433 L1319,3463 L1319,3366 Z M1412,3336 L1412,3433 L1505,3463 L1505,3366 Z M1319,3366 L1226,3336 L1169,3415 L1262,3445 Z M1469,3257 L1562,3287 L1505,3366 L1412,3336 Z M1412,3433 L1354,3512 L1412,3591 L1469,3512 Z M1469,3512 L1562,3542 L1505,3621 L1412,3591 Z M1354,3512 L1412,3591 L1319,3621 L1262,3542 Z M1562,3542 L1505,3621 L1562,3700 L1619,3621 Z M1619,3621 L1712,3651 L1655,3730 L1562,3700 Z M1505,3621 L1505,3719 L1412,3749 L1412,3651 Z M1655,3415 L1655,3512 L1562,3542 L1562,3445 Z M1655,3415 L1655,3512 L1747,3542 L1747,3445 Z M1597,3336 L1655,3415 L1562,3445 L1505,3366 Z M1712,3336 L1805,3366 L1747,3445 L1655,3415 Z M1747,3542 L1805,3621 L1712,3651 L1655,3572 Z M1805,3621 L1805,3719 L1712,3749 L1712,3651 Z M1805,3621 L1805,3719 L1897,3749 L1897,3651 Z M1805,3463 L1747,3542 L1805,3621 L1862,3542 Z M1897,3433 L1955,3512 L1862,3542 L1805,3463 Z M1955,3512 L2048,3542 L1990,3621 L1897,3591 Z M2048,3542 L1990,3621 L2048,3700 L2105,3621 Z M1955,3415 L1955,3512 L2048,3542 L2048,3445 Z M1897,3336 L1897,3433 L1805,3463 L1805,3366 Z M2140,3415 L2140,3512 L2048,3542 L2048,3445 Z M2198,3336 L2198,3433 L2290,3463 L2290,3366 Z M2048,3287 L1990,3366 L2048,3445 L2105,3366 Z M2140,3257 L2198,3336 L2105,3366 L2048,3287 Z M1955,3257 L2048,3287 L1990,3366 L1897,3336 Z M2140,3159 L2140,3257 L2048,3287 L2048,3189 Z M1955,3159 L1955,3257 L2048,3287 L2048,3189 Z M1897,3080 L1840,3159 L1897,3238 L1955,3159 Z M1840,3159 L1840,3257 L1747,3287 L1747,3189 Z M1840,3257 L1897,3336 L1805,3366 L1747,3287 Z M1655,3257 L1597,3336 L1655,3415 L1712,3336 Z M1655,3159 L1655,3257 L1562,3287 L1562,3189 Z M1655,3159 L1655,3257 L1747,3287 L1747,3189 Z M1805,3050 L1897,3080 L1840,3159 L1747,3129 Z M1655,3001 L1597,3080 L1655,3159 L1712,3080 Z M1747,2971 L1805,3050 L1712,3080 L1655,3001 Z M1562,2971 L1655,3001 L1597,3080 L1505,3050 Z M1805,2953 L1805,3050 L1897,3080 L1897,2983 Z M2048,2971 L1990,3050 L2048,3129 L2105,3050 Z M2105,3050 L2198,3080 L2140,3159 L2048,3129 Z M1990,3050 L2048,3129 L1955,3159 L1897,3080 Z M2198,3080 L2140,3159 L2198,3238 L2255,3159 Z M2233,2874 L2290,2953 L2198,2983 L2140,2904 Z M2290,2795 L2233,2874 L2290,2953 L2348,2874 Z M2383,2765 L2440,2844 L2348,2874 L2290,2795 Z M2348,2874 L2348,2971 L2440,3001 L2440,2904 Z M2383,2667 L2383,2765 L2290,2795 L2290,2697 Z M2198,2667 L2198,2765 L2105,2795 L2105,2697 Z M2198,2667 L2198,2765 L2290,2795 L2290,2697 Z M2440,2588 L2533,2618 L2590,2540 L2498,2509 Z M2440,2588 L2440,2686 L2533,2716 L2533,2618 Z M2290,2540 L2233,2618 L2290,2697 L2348,2618 Z M2383,2509 L2440,2588 L2348,2618 L2290,2540 Z M2198,2509 L2290,2540 L2233,2618 L2140,2588 Z M2198,2412 L2198,2509 L2290,2540 L2290,2442 Z M2140,2333 L2198,2412 L2105,2442 L2048,2363 Z M2140,2333 L2198,2254 L2255,2333 L2198,2412 Z M2140,2491 L2140,2588 L2048,2618 L2048,2521 Z M2048,2363 L1990,2442 L2048,2521 L2105,2442 Z M2048,2205 L1990,2126 L1897,2157 L1955,2235 Z M2048,2205 L2105,2126 L2048,2048 L1990,2126 Z M2048,2205 L2140,2235 L2198,2157 L2105,2126 Z M2048,2205 L2048,2303 L1955,2333 L1955,2235 Z M2048,2205 L2048,2303 L2140,2333 L2140,2235 Z M2533,2618 L2590,2697 L2683,2667 L2626,2588 Z M2440,2686 L2533,2716 L2476,2795 L2383,2765 Z M2533,2716 L2476,2795 L2533,2874 L2590,2795 Z M2590,2795 L2683,2825 L2626,2904 L2533,2874 Z M2533,2874 L2533,2971 L2440,3001 L2440,2904 Z M2590,2953 L2590,3050 L2683,3080 L2683,2983 Z M2533,2971 L2590,3050 L2498,3080 L2440,3001 Z M2440,3001 L2383,3080 L2440,3159 L2498,3080 Z M2590,3050 L2683,3080 L2626,3159 L2533,3129 Z M2683,3080 L2741,3159 L2833,3129 L2776,3050 Z M2683,3080 L2626,3159 L2683,3238 L2741,3159 Z M2741,3159 L2741,3257 L2833,3287 L2833,3189 Z M2626,3159 L2626,3257 L2533,3287 L2533,3189 Z M2683,2983 L2683,3080 L2776,3050 L2776,2953 Z M2833,2874 L2926,2904 L2983,2825 L2891,2795 Z M2833,2874 L2833,2971 L2926,3001 L2926,2904 Z M2683,2825 L2741,2904 L2833,2874 L2776,2795 Z M2683,2825 L2626,2904 L2683,2983 L2741,2904 Z M2776,2795 L2833,2716 L2891,2795 L2833,2874 Z M2833,2618 L2891,2697 L2983,2667 L2926,2588 Z M2683,2667 L2776,2697 L2833,2618 L2741,2588 Z M2683,2667 L2683,2765 L2776,2795 L2776,2697 Z M2590,2697 L2590,2795 L2683,2765 L2683,2667 Z M2626,2588 L2683,2509 L2741,2588 L2683,2667 Z M2683,2412 L2776,2442 L2833,2363 L2741,2333 Z M2683,2412 L2683,2509 L2776,2540 L2776,2442 Z M2590,2442 L2590,2540 L2683,2509 L2683,2412 Z M2626,2333 L2683,2254 L2741,2333 L2683,2412 Z M2776,2442 L2833,2521 L2926,2491 L2869,2412 Z M2869,2412 L2926,2333 L2983,2412 L2926,2491 Z M2833,2521 L2833,2618 L2926,2588 L2926,2491 Z M2926,2333 L2983,2412 L3076,2382 L3019,2303 Z M3019,2303 L3076,2224 L3133,2303 L3076,2382 Z M2983,2412 L2983,2509 L3076,2540 L3076,2442 Z M2983,2157 L2983,2254 L3076,2224 L3076,2126 Z M2833,2205 L2926,2235 L2983,2157 L2891,2126 Z M2833,2205 L2833,2303 L2926,2333 L2926,2235 Z M2741,2235 L2741,2333 L2833,2303 L2833,2205 Z M2776,2126 L2833,2048 L2891,2126 L2833,2205 Z M2926,2078 L2983,2157 L3076,2126 L3019,2047 Z M2833,1950 L2833,2048 L2926,2078 L2926,1980 Z M2926,1920 L3019,1950 L3076,1871 L2983,1841 Z M2741,1980 L2741,2078 L2833,2048 L2833,1950 Z M2776,1871 L2833,1792 L2891,1871 L2833,1950 Z M2926,1980 L2926,2078 L3019,2047 L3019,1950 Z M3019,1950 L3076,1871 L3133,1950 L3076,2029 Z M3076,1871 L3133,1950 L3226,1920 L3169,1841 Z M3076,1871 L3076,1774 L3169,1743 L3169,1841 Z M3076,2126 L3169,2157 L3226,2078 L3133,2047 Z M3076,2126 L3076,2224 L3169,2254 L3169,2157 Z M3169,2157 L3226,2235 L3319,2205 L3262,2126 Z M3169,2412 L3226,2333 L3284,2412 L3226,2491 Z M3319,2363 L3376,2442 L3469,2412 L3412,2333 Z M3226,2235 L3226,2333 L3319,2303 L3319,2205 Z M3319,2205 L3412,2235 L3469,2157 L3376,2126 Z M3319,2205 L3319,2303 L3412,2333 L3412,2235 Z M3262,2126 L3319,2047 L3376,2126 L3319,2205 Z M3469,2157 L3469,2254 L3562,2224 L3562,2126 Z M3412,2333 L3469,2254 L3526,2333 L3469,2412 Z M3469,2412 L3469,2509 L3562,2540 L3562,2442 Z M3469,2254 L3526,2333 L3619,2303 L3562,2224 Z M3562,2382 L3655,2412 L3712,2333 L3619,2303 Z M3712,2333 L3769,2412 L3862,2382 L3805,2303 Z M3619,2205 L3619,2303 L3712,2333 L3712,2235 Z M3562,2126 L3655,2157 L3712,2078 L3619,2047 Z M3712,2235 L3712,2333 L3805,2303 L3805,2205 Z M3655,2157 L3712,2078 L3769,2157 L3712,2235 Z M3862,2126 L3955,2157 L4012,2078 L3919,2047 Z M3862,2126 L3862,2224 L3955,2254 L3955,2157 Z M3712,2078 L3769,2157 L3862,2126 L3805,2047 Z M3712,1980 L3712,2078 L3805,2047 L3805,1950 Z M3805,1950 L3862,1871 L3919,1950 L3862,2029 Z M3619,1950 L3619,2047 L3712,2078 L3712,1980 Z M3712,1920 L3805,1950 L3862,1871 L3769,1841 Z M3562,1871 L3619,1950 L3712,1920 L3655,1841 Z M3504,1950 L3562,1871 L3619,1950 L3562,2029 Z M3412,1980 L3412,2078 L3504,2047 L3504,1950 Z M3412,1920 L3504,1950 L3562,1871 L3469,1841 Z M3412,2078 L3469,2157 L3562,2126 L3504,2047 Z M3319,1950 L3319,2047 L3412,2078 L3412,1980 Z M3226,1980 L3226,2078 L3319,2047 L3319,1950 Z M3262,1871 L3319,1792 L3376,1871 L3319,1950 Z M3133,1950 L3133,2047 L3226,2078 L3226,1980 Z M3169,1841 L3262,1871 L3319,1792 L3226,1762 Z M3226,1762 L3226,1665 L3319,1695 L3319,1792 Z M3319,1634 L3412,1665 L3469,1586 L3376,1555 Z M3169,1586 L3226,1507 L3284,1586 L3226,1665 Z M3412,1665 L3469,1586 L3526,1665 L3469,1743 Z M3319,1792 L3376,1871 L3469,1841 L3412,1762 Z M3319,1792 L3319,1695 L3412,1665 L3412,1762 Z M3469,1841 L3469,1743 L3562,1774 L3562,1871 Z M3469,1743 L3562,1774 L3619,1695 L3526,1665 Z M3712,1665 L3805,1695 L3862,1616 L3769,1586 Z M3562,1616 L3619,1695 L3712,1665 L3655,1586 Z M3619,1792 L3619,1695 L3712,1665 L3712,1762 Z M3712,1762 L3712,1665 L3805,1695 L3805,1792 Z M3655,1841 L3712,1762 L3769,1841 L3712,1920 Z M3862,1871 L3919,1950 L4012,1920 L3955,1841 Z M3862,1871 L3862,1774 L3955,1743 L3955,1841 Z M3805,1695 L3862,1774 L3955,1743 L3897,1665 Z M3897,1665 L3955,1586 L4012,1665 L3955,1743 Z M3769,1586 L3769,1488 L3862,1458 L3862,1555 Z M3862,1555 L3862,1458 L3955,1488 L3955,1586 Z M3712,1409 L3769,1488 L3862,1458 L3805,1379 Z M3712,1409 L3712,1312 L3805,1282 L3805,1379 Z M3805,1379 L3897,1409 L3955,1330 L3862,1300 Z M3619,1379 L3619,1282 L3712,1312 L3712,1409 Z M3655,1233 L3712,1154 L3769,1233 L3712,1312 Z M3562,1203 L3619,1124 L3562,1045 L3504,1124 Z M3562,1203 L3655,1233 L3712,1154 L3619,1124 Z M3619,1124 L3619,1026 L3712,996 L3712,1094 Z M3469,1330 L3526,1409 L3619,1379 L3562,1300 Z M3469,1330 L3469,1233 L3562,1203 L3562,1300 Z M3412,1409 L3469,1330 L3526,1409 L3469,1488 Z M3376,1300 L3376,1203 L3469,1233 L3469,1330 Z M3319,1379 L3412,1409 L3469,1330 L3376,1300 Z M3376,1203 L3319,1124 L3412,1094 L3469,1173 Z M3319,1124 L3319,1026 L3412,996 L3412,1094 Z M3319,1282 L3376,1203 L3319,1124 L3262,1203 Z M3169,1173 L3262,1203 L3319,1124 L3226,1094 Z M3169,1330 L3169,1233 L3262,1203 L3262,1300 Z M3226,1409 L3169,1330 L3262,1300 L3319,1379 Z M3076,1300 L3076,1203 L3169,1233 L3169,1330 Z M2983,1330 L2983,1233 L3076,1203 L3076,1300 Z M3076,1203 L3133,1124 L3076,1045 L3019,1124 Z M3133,1124 L3076,1045 L3169,1015 L3226,1094 Z M2891,1203 L2833,1124 L2926,1094 L2983,1173 Z M2926,1094 L3019,1124 L3076,1045 L2983,1015 Z M2833,1124 L2833,1026 L2926,996 L2926,1094 Z M2983,1015 L2983,917 L3076,947 L3076,1045 Z M2926,996 L2983,917 L2926,838 L2869,917 Z M2833,1026 L2776,947 L2869,917 L2926,996 Z M2983,917 L2926,838 L3019,808 L3076,887 Z M2926,838 L2926,741 L3019,711 L3019,808 Z M3169,917 L3226,838 L3169,759 L3112,838 Z M3169,917 L3262,947 L3319,868 L3226,838 Z M3076,1045 L3076,947 L3169,917 L3169,1015 Z M3226,1094 L3226,996 L3319,1026 L3319,1124 Z M3319,1026 L3376,947 L3319,868 L3262,947 Z M3376,947 L3319,868 L3412,838 L3469,917 Z M3469,917 L3526,838 L3469,759 L3412,838 Z M3469,917 L3562,947 L3619,868 L3526,838 Z M3226,838 L3226,741 L3319,711 L3319,808 Z M3319,808 L3319,711 L3412,741 L3412,838 Z M3226,741 L3169,662 L3262,632 L3319,711 Z M3319,711 L3376,632 L3319,553 L3262,632 Z M3319,711 L3412,741 L3469,662 L3376,632 Z M3226,583 L3226,485 L3319,455 L3319,553 Z M3076,632 L3169,662 L3226,583 L3133,553 Z M2983,662 L2926,583 L3019,553 L3076,632 Z M3133,553 L3133,455 L3226,485 L3226,583 Z M3076,534 L3133,455 L3076,376 L3019,455 Z M3076,729 L3076,632 L3169,662 L3169,759 Z M3019,808 L3112,838 L3169,759 L3076,729 Z M3133,455 L3076,376 L3169,346 L3226,425 Z M3619,1026 L3562,947 L3655,917 L3712,996 Z M3469,1015 L3469,917 L3562,947 L3562,1045 Z M3412,1094 L3504,1124 L3562,1045 L3469,1015 Z M3712,1094 L3712,996 L3805,1026 L3805,1124 Z M3712,1154 L3769,1233 L3862,1203 L3805,1124 Z M2983,346 L2983,249 L3076,279 L3076,376 Z M2891,376 L2833,298 L2926,267 L2983,346 Z M2926,425 L3019,455 L3076,376 L2983,346 Z M2833,455 L2891,376 L2833,298 L2776,376 Z M2741,485 L2683,407 L2776,376 L2833,455 Z M2833,553 L2833,455 L2926,485 L2926,583 Z M2776,632 L2869,662 L2926,583 L2833,553 Z M2926,583 L2926,485 L3019,455 L3019,553 Z M2926,741 L2983,662 L2926,583 L2869,662 Z M2741,741 L2683,662 L2776,632 L2833,711 Z M2833,808 L2833,711 L2926,741 L2926,838 Z M2741,838 L2741,741 L2833,711 L2833,808 Z M2683,917 L2741,838 L2683,759 L2626,838 Z M2683,917 L2776,947 L2833,868 L2741,838 Z M2683,1015 L2683,917 L2776,947 L2776,1045 Z M2590,1045 L2590,947 L2683,917 L2683,1015 Z M2683,1173 L2741,1094 L2683,1015 L2626,1094 Z M2683,1173 L2776,1203 L2833,1124 L2741,1094 Z M2590,1203 L2533,1124 L2626,1094 L2683,1173 Z M2833,1282 L2891,1203 L2833,1124 L2776,1203 Z M2683,1330 L2683,1233 L2776,1203 L2776,1300 Z M2833,1379 L2926,1409 L2983,1330 L2891,1300 Z M2741,1409 L2683,1330 L2776,1300 L2833,1379 Z M2891,1300 L2891,1203 L2983,1233 L2983,1330 Z M2833,1477 L2833,1379 L2926,1409 L2926,1507 Z M2776,1555 L2869,1586 L2926,1507 L2833,1477 Z M2983,1586 L2983,1488 L3076,1458 L3076,1555 Z M2926,1665 L2983,1586 L2926,1507 L2869,1586 Z M2926,1665 L3019,1695 L3076,1616 L2983,1586 Z M3019,1695 L3076,1616 L3133,1695 L3076,1774 Z M2833,1792 L2891,1871 L2983,1841 L2926,1762 Z M2833,1792 L2833,1695 L2926,1665 L2926,1762 Z M2983,1841 L2983,1743 L3076,1774 L3076,1871 Z M2741,1762 L2741,1665 L2833,1695 L2833,1792 Z M2741,1665 L2683,1586 L2776,1555 L2833,1634 Z M2683,1586 L2683,1488 L2776,1458 L2776,1555 Z M2683,1488 L2741,1409 L2683,1330 L2626,1409 Z M3076,1616 L3133,1695 L3226,1665 L3169,1586 Z M3076,1555 L3076,1458 L3169,1488 L3169,1586 Z M2983,1488 L2926,1409 L3019,1379 L3076,1458 Z M3076,1458 L3133,1379 L3076,1300 L3019,1379 Z M3076,1458 L3169,1488 L3226,1409 L3133,1379 Z M2590,1300 L2590,1203 L2683,1233 L2683,1330 Z M2440,1094 L2440,996 L2533,1026 L2533,1124 Z M2590,947 L2533,868 L2626,838 L2683,917 Z M2440,996 L2498,917 L2440,838 L2383,917 Z M2440,996 L2533,1026 L2590,947 L2498,917 Z M2348,1026 L2290,947 L2383,917 L2440,996 Z M2440,838 L2440,741 L2533,711 L2533,808 Z M2533,808 L2533,711 L2626,741 L2626,838 Z M2348,808 L2348,711 L2440,741 L2440,838 Z M2440,741 L2498,662 L2440,583 L2383,662 Z M2533,711 L2626,741 L2683,662 L2590,632 Z M2498,662 L2440,583 L2533,553 L2590,632 Z M2255,741 L2198,662 L2290,632 L2348,711 Z M2290,632 L2383,662 L2440,583 L2348,553 Z M2198,662 L2198,564 L2290,534 L2290,632 Z M2348,553 L2348,455 L2440,485 L2440,583 Z M2290,534 L2348,455 L2290,376 L2233,455 Z M2198,564 L2140,485 L2233,455 L2290,534 Z M2348,455 L2290,376 L2383,346 L2440,425 Z M2290,376 L2290,279 L2383,249 L2383,346 Z M2290,376 L2290,279 L2198,249 L2198,346 Z M2533,455 L2590,376 L2533,298 L2476,376 Z M2533,455 L2626,485 L2683,407 L2590,376 Z M2440,583 L2440,485 L2533,455 L2533,553 Z M2590,632 L2590,534 L2683,564 L2683,662 Z M2683,662 L2683,564 L2776,534 L2776,632 Z M2683,564 L2741,485 L2683,407 L2626,485 Z M2590,376 L2590,279 L2683,249 L2683,346 Z M2683,346 L2683,249 L2776,279 L2776,376 Z M2590,279 L2533,200 L2626,170 L2683,249 Z M2683,249 L2776,279 L2833,200 L2741,170 Z M2440,170 L2533,200 L2590,121 L2498,91 Z M2348,200 L2290,121 L2383,91 L2440,170 Z M2440,267 L2440,170 L2533,200 L2533,298 Z M2383,346 L2476,376 L2533,298 L2440,267 Z M2290,279 L2348,200 L2290,121 L2233,200 Z M2233,200 L2140,170 L2198,91 L2290,121 Z M2105,279 L2048,200 L2140,170 L2198,249 Z M2105,376 L2105,279 L2198,249 L2198,346 Z M2048,455 L2105,376 L2048,298 L1990,376 Z M2140,485 L2048,455 L2105,376 L2198,407 Z M2140,583 L2140,485 L2048,455 L2048,553 Z M1990,376 L1990,279 L1897,249 L1897,346 Z M1990,279 L1897,249 L1955,170 L2048,200 Z M2048,200 L2048,102 L2140,72 L2140,170 Z M2048,200 L2048,102 L1955,72 L1955,170 Z M2140,741 L2048,711 L2105,632 L2198,662 Z M2255,838 L2255,741 L2348,711 L2348,808 Z M2140,838 L2140,741 L2048,711 L2048,808 Z M2198,917 L2255,838 L2198,759 L2140,838 Z M2198,917 L2290,947 L2348,868 L2255,838 Z M2198,1015 L2198,917 L2290,947 L2290,1045 Z M3226,1507 L3284,1586 L3376,1555 L3319,1477 Z M3226,1507 L3226,1409 L3319,1379 L3319,1477 Z M3376,1555 L3376,1458 L3469,1488 L3469,1586 Z M3469,1586 L3469,1488 L3562,1458 L3562,1555 Z M3562,1458 L3655,1488 L3712,1409 L3619,1379 Z M3562,1555 L3562,1458 L3655,1488 L3655,1586 Z M3655,1586 L3712,1507 L3769,1586 L3712,1665 Z M3919,1950 L3919,2047 L4012,2078 L4012,1980 Z M3897,2333 L3955,2254 L4012,2333 L3955,2412 Z M3805,2303 L3897,2333 L3955,2254 L3862,2224 Z M3769,2412 L3769,2509 L3862,2540 L3862,2442 Z M3862,2442 L3862,2540 L3955,2509 L3955,2412 Z M3897,2588 L3955,2509 L4012,2588 L3955,2667 Z M3805,2618 L3862,2697 L3955,2667 L3897,2588 Z M3862,2697 L3862,2795 L3955,2765 L3955,2667 Z M3805,2874 L3862,2795 L3919,2874 L3862,2953 Z M3712,2844 L3805,2874 L3862,2795 L3769,2765 Z M3619,2874 L3619,2971 L3712,3001 L3712,2904 Z M3655,2765 L3712,2686 L3769,2765 L3712,2844 Z M3562,2795 L3619,2874 L3712,2844 L3655,2765 Z M3504,2874 L3562,2795 L3619,2874 L3562,2953 Z M3619,2618 L3619,2716 L3712,2686 L3712,2588 Z M3469,2667 L3562,2697 L3619,2618 L3526,2588 Z M3469,2667 L3469,2765 L3562,2795 L3562,2697 Z M3376,2697 L3376,2795 L3469,2765 L3469,2667 Z M3412,2588 L3469,2509 L3526,2588 L3469,2667 Z M3562,2540 L3619,2618 L3712,2588 L3655,2509 Z M3562,2442 L3562,2540 L3655,2509 L3655,2412 Z M3655,2412 L3712,2333 L3769,2412 L3712,2491 Z M3712,2588 L3805,2618 L3862,2540 L3769,2509 Z M3712,2588 L3712,2686 L3805,2716 L3805,2618 Z M3319,2618 L3376,2697 L3469,2667 L3412,2588 Z M3376,2442 L3376,2540 L3469,2509 L3469,2412 Z M3226,2491 L3319,2521 L3376,2442 L3284,2412 Z M3226,2491 L3226,2588 L3319,2618 L3319,2521 Z M3169,2667 L3262,2697 L3319,2618 L3226,2588 Z M3169,2667 L3169,2765 L3262,2795 L3262,2697 Z M3076,2697 L3076,2795 L3169,2765 L3169,2667 Z M3262,2795 L3319,2716 L3376,2795 L3319,2874 Z M3169,2825 L3226,2904 L3319,2874 L3262,2795 Z M3319,2874 L3412,2904 L3469,2825 L3376,2795 Z M3319,2874 L3319,2971 L3412,3001 L3412,2904 Z M3226,2904 L3226,3001 L3319,2971 L3319,2874 Z M3412,2904 L3469,2983 L3562,2953 L3504,2874 Z M3262,3050 L3319,2971 L3376,3050 L3319,3129 Z M3469,3080 L3526,3159 L3619,3129 L3562,3050 Z M3562,3050 L3655,3080 L3712,3001 L3619,2971 Z M3526,3159 L3526,3257 L3619,3287 L3619,3189 Z M3412,3159 L3469,3080 L3526,3159 L3469,3238 Z M3469,2983 L3469,3080 L3562,3050 L3562,2953 Z M3319,3189 L3319,3287 L3412,3257 L3412,3159 Z M3319,3129 L3412,3159 L3469,3080 L3376,3050 Z M3319,3287 L3376,3366 L3469,3336 L3412,3257 Z M3319,3287 L3262,3366 L3319,3445 L3376,3366 Z M3469,3336 L3562,3366 L3619,3287 L3526,3257 Z M3319,3445 L3319,3542 L3412,3512 L3412,3415 Z M3226,3415 L3226,3512 L3319,3542 L3319,3445 Z M3133,3445 L3133,3542 L3226,3512 L3226,3415 Z M3076,3366 L3133,3445 L3226,3415 L3169,3336 Z M3226,3257 L3319,3287 L3262,3366 L3169,3336 Z M3076,3268 L3076,3366 L3169,3336 L3169,3238 Z M3226,3159 L3226,3257 L3319,3287 L3319,3189 Z M3169,3080 L3226,3159 L3319,3129 L3262,3050 Z M3169,3080 L3112,3159 L3169,3238 L3226,3159 Z M3076,2953 L3169,2983 L3226,2904 L3133,2874 Z M3076,2953 L3076,3050 L3169,3080 L3169,2983 Z M2983,2983 L2983,3080 L3076,3050 L3076,2953 Z M3019,2874 L3076,2795 L3133,2874 L3076,2953 Z M2926,2904 L2983,2983 L3076,2953 L3019,2874 Z M2926,3001 L2869,3080 L2926,3159 L2983,3080 Z M2983,3080 L3076,3110 L3019,3189 L2926,3159 Z M2833,2971 L2926,3001 L2869,3080 L2776,3050 Z M2926,3159 L2926,3257 L3019,3287 L3019,3189 Z M2833,3189 L2833,3287 L2926,3257 L2926,3159 Z M3019,3189 L3076,3268 L3169,3238 L3112,3159 Z M2926,3257 L2869,3336 L2926,3415 L2983,3336 Z M2983,3336 L3076,3366 L3019,3445 L2926,3415 Z M2776,3366 L2833,3445 L2926,3415 L2869,3336 Z M2926,3415 L2926,3512 L3019,3542 L3019,3445 Z M2833,3445 L2833,3542 L2926,3512 L2926,3415 Z M2833,3542 L2776,3621 L2833,3700 L2891,3621 Z M2926,3572 L2983,3651 L3076,3621 L3019,3542 Z M3076,3621 L3076,3719 L3169,3749 L3169,3651 Z M3076,3463 L3019,3542 L3076,3621 L3133,3542 Z M3133,3542 L3226,3572 L3169,3651 L3076,3621 Z M2983,3651 L2983,3749 L3076,3719 L3076,3621 Z M2833,3797 L2926,3828 L2869,3907 L2776,3876 Z M2833,3700 L2833,3797 L2926,3828 L2926,3730 Z M2776,3621 L2776,3719 L2683,3749 L2683,3651 Z M2891,3621 L2983,3651 L2926,3730 L2833,3700 Z M2776,3719 L2833,3797 L2741,3828 L2683,3749 Z M2683,3749 L2626,3828 L2683,3907 L2741,3828 Z M2590,3719 L2683,3749 L2626,3828 L2533,3797 Z M2533,3797 L2590,3876 L2498,3907 L2440,3828 Z M2590,3621 L2590,3719 L2683,3749 L2683,3651 Z M2533,3542 L2476,3621 L2533,3700 L2590,3621 Z M2533,3700 L2533,3797 L2440,3828 L2440,3730 Z M2476,3621 L2533,3700 L2440,3730 L2383,3651 Z M2290,3621 L2290,3719 L2198,3749 L2198,3651 Z M2290,3621 L2290,3719 L2383,3749 L2383,3651 Z M2290,3719 L2233,3797 L2290,3876 L2348,3797 Z M2348,3797 L2440,3828 L2383,3907 L2290,3876 Z M2233,3797 L2290,3876 L2198,3907 L2140,3828 Z M2290,3876 L2290,3974 L2198,4004 L2198,3907 Z M2290,3876 L2290,3974 L2383,4004 L2383,3907 Z M2590,3876 L2590,3974 L2498,4004 L2498,3907 Z M2105,3974 L2198,4004 L2140,4083 L2048,4053 Z M2048,3895 L1990,3974 L2048,4053 L2105,3974 Z M1990,3974 L2048,4053 L1955,4083 L1897,4004 Z M1805,3876 L1805,3974 L1712,4004 L1712,3907 Z M1805,3876 L1805,3974 L1897,4004 L1897,3907 Z M1747,3797 L1805,3876 L1712,3907 L1655,3828 Z M1862,3797 L1955,3828 L1897,3907 L1805,3876 Z M1805,3719 L1747,3797 L1805,3876 L1862,3797 Z M1990,3719 L2048,3797 L1955,3828 L1897,3749 Z M1990,3621 L1990,3719 L1897,3749 L1897,3651 Z M2105,3621 L2105,3719 L2198,3749 L2198,3651 Z M2048,3797 L2048,3895 L1955,3925 L1955,3828 Z M2048,3797 L2048,3895 L2140,3925 L2140,3828 Z M2105,3719 L2198,3749 L2140,3828 L2048,3797 Z M2140,3512 L2198,3591 L2105,3621 L2048,3542 Z M2198,3433 L2290,3463 L2233,3542 L2140,3512 Z M2290,3463 L2233,3542 L2290,3621 L2348,3542 Z M2348,3542 L2440,3572 L2383,3651 L2290,3621 Z M2383,3336 L2440,3415 L2348,3445 L2290,3366 Z M2440,3257 L2383,3336 L2440,3415 L2498,3336 Z M2255,3257 L2348,3287 L2290,3366 L2198,3336 Z M2440,3159 L2440,3257 L2348,3287 L2348,3189 Z M2440,3159 L2440,3257 L2533,3287 L2533,3189 Z M2255,3159 L2255,3257 L2348,3287 L2348,3189 Z M2290,3050 L2348,3129 L2255,3159 L2198,3080 Z M2348,2971 L2440,3001 L2383,3080 L2290,3050 Z M2290,2953 L2290,3050 L2198,3080 L2198,2983 Z M2626,3257 L2683,3336 L2590,3366 L2533,3287 Z M2683,3336 L2683,3433 L2590,3463 L2590,3366 Z M2683,3336 L2683,3433 L2776,3463 L2776,3366 Z M2498,3336 L2590,3366 L2533,3445 L2440,3415 Z M2683,3433 L2626,3512 L2683,3591 L2741,3512 Z M2741,3512 L2833,3542 L2776,3621 L2683,3591 Z M2626,3512 L2683,3591 L2590,3621 L2533,3542 Z M2440,3415 L2440,3512 L2348,3542 L2348,3445 Z M2440,3415 L2440,3512 L2533,3542 L2533,3445 Z M2741,3257 L2833,3287 L2776,3366 L2683,3336 Z M1562,3700 L1562,3797 L1655,3828 L1655,3730 Z M1562,3797 L1655,3828 L1597,3907 L1505,3876 Z M1505,3719 L1562,3797 L1469,3828 L1412,3749 Z M1505,3876 L1505,3974 L1597,4004 L1597,3907 Z M1262,3797 L1319,3876 L1226,3907 L1169,3828 Z M1319,3719 L1412,3749 L1354,3828 L1262,3797 Z M1262,3700 L1262,3797 L1169,3828 L1169,3730 Z M1204,3621 L1262,3700 L1169,3730 L1112,3651 Z M1319,3621 L1319,3719 L1412,3749 L1412,3651 Z M1262,3542 L1204,3621 L1262,3700 L1319,3621 Z M1412,3749 L1354,3828 L1412,3907 L1469,3828 Z M1169,3572 L1076,3542 L1019,3621 L1112,3651 Z M1262,3445 L1262,3542 L1169,3512 L1169,3415 Z M1169,3415 L1169,3512 L1076,3542 L1076,3445 Z M1112,3336 L1169,3415 L1076,3445 L1019,3366 Z M1169,3257 L1112,3336 L1169,3415 L1226,3336 Z M1169,3159 L1169,3257 L1076,3287 L1076,3189 Z M1076,3189 L983,3159 L926,3238 L1019,3268 Z M1112,3080 L1169,3159 L1076,3189 L1019,3110 Z M1112,2983 L1112,3080 L1019,3050 L1019,2953 Z M1019,2953 L962,2874 L869,2904 L926,2983 Z M1019,2953 L1019,3050 L926,3080 L926,2983 Z M1019,3268 L1019,3366 L926,3336 L926,3238 Z M869,3159 L869,3257 L776,3287 L776,3189 Z M869,3257 L926,3336 L833,3366 L776,3287 Z M869,3415 L869,3512 L776,3542 L776,3445 Z M1019,3366 L926,3336 L869,3415 L962,3445 Z M962,3445 L962,3542 L869,3512 L869,3415 Z M1019,3463 L962,3542 L1019,3621 L1076,3542 Z M962,3542 L1019,3621 L926,3651 L869,3572 Z M1019,3621 L1019,3719 L926,3749 L926,3651 Z M776,3445 L776,3542 L683,3512 L683,3415 Z M626,3336 L569,3257 L476,3287 L533,3366 Z M776,3287 L719,3366 L776,3445 L833,3366 Z M776,3287 L683,3257 L626,3336 L719,3366 Z M776,3189 L776,3287 L683,3257 L683,3159 Z M1112,3651 L1112,3749 L1019,3719 L1019,3621 Z M776,3129 L719,3050 L626,3080 L683,3159 Z M2891,2697 L2891,2795 L2983,2765 L2983,2667 Z M2983,2667 L2983,2765 L3076,2795 L3076,2697 Z M2926,2588 L3019,2618 L3076,2540 L2983,2509 Z M3019,2618 L3076,2540 L3133,2618 L3076,2697 Z M3076,2540 L3133,2618 L3226,2588 L3169,2509 Z M3076,2442 L3076,2540 L3169,2509 L3169,2412 Z M3655,3080 L3712,3001 L3769,3080 L3712,3159 Z M3712,2904 L3712,3001 L3805,2971 L3805,2874 Z M3076,2382 L3169,2412 L3226,2333 L3133,2303 Z M2683,2157 L2741,2235 L2833,2205 L2776,2126 Z M233,2697 L233,2795 L140,2765 L140,2667 Z M290,2618 L198,2588 L140,2667 L233,2697 Z M198,2588 L140,2667 L83,2588 L140,2509 Z M198,2333 L140,2412 L83,2333 L140,2254 Z M233,2442 L233,2540 L140,2509 L140,2412 Z M326,2412 L326,2509 L233,2540 L233,2442 Z M383,2333 L290,2303 L233,2382 L326,2412 Z M440,2412 L383,2491 L326,2412 L383,2333 Z M290,2303 L233,2224 L140,2254 L198,2333 Z M383,2235 L383,2333 L290,2303 L290,2205 Z M233,2126 L176,2048 L83,2078 L140,2157 Z M233,2126 L233,2224 L140,2254 L140,2157 Z M176,1950 L176,2048 L83,2078 L83,1980 Z M198,1665 L140,1743 L83,1665 L140,1586 Z M869,2491 L811,2412 L719,2442 L776,2521 Z M869,2491 L869,2588 L776,2618 L776,2521 Z M1019,2126 L962,2048 L869,2078 L926,2157 Z M1019,2126 L1019,2224 L926,2254 L926,2157 Z M1262,1792 L1169,1762 L1112,1841 L1204,1871 Z M1262,1792 L1262,1695 L1169,1665 L1169,1762 Z M1955,1762 L1955,1665 L2048,1695 L2048,1792 Z M2140,1762 L2140,1665 L2048,1695 L2048,1792 Z M2198,1841 L2140,1762 L2048,1792 L2105,1871 Z M2198,1841 L2198,1743 L2290,1774 L2290,1871 Z M2198,1743 L2255,1665 L2198,1586 L2140,1665 Z M2198,1743 L2290,1774 L2348,1695 L2255,1665 Z M1262,1026 L1169,996 L1226,917 L1319,947 Z M1169,996 L1226,917 L1169,838 L1112,917 Z M1169,1094 L1112,1015 L1019,1045 L1076,1124 Z M1112,1015 L1112,917 L1019,947 L1019,1045 Z M1019,1045 L1019,947 L926,917 L926,1015 Z M2348,1792 L2348,1695 L2440,1665 L2440,1762 Z " fill="rgb(29, 32, 33)"/>
</g></svg>